<?xml version="1.0" encoding="UTF-8"?>
<!DOCTYPE svg PUBLIC "-//W3C//DTD SVG 1.1//EN" "http://www.w3.org/Graphics/SVG/1.1/DTD/svg11.dtd">
<svg xmlns="http://www.w3.org/2000/svg" version="1.1" width="6000px" height="3600px" style="shape-rendering:geometricPrecision; text-rendering:geometricPrecision; image-rendering:optimizeQuality; fill-rule:evenodd; clip-rule:evenodd" xmlns:xlink="http://www.w3.org/1999/xlink">
<g><path style="opacity:0.183" fill="#0093d4" d="M -0.5,-0.5 C 1999.5,-0.5 3999.5,-0.5 5999.5,-0.5C 5999.5,1199.5 5999.5,2399.5 5999.5,3599.5C 3999.5,3599.5 1999.5,3599.5 -0.5,3599.5C -0.5,2399.5 -0.5,1199.5 -0.5,-0.5 Z"/></g>
<g><path style="opacity:1" fill="#fe6301" d="M 3252.5,1358.5 C 3330.22,1356.12 3394.38,1384.12 3445,1442.5C 3499.95,1514.82 3510.95,1593.48 3478,1678.5C 3448.77,1742.06 3400.93,1784.9 3334.5,1807C 3236.99,1831.94 3155.16,1806.77 3089,1731.5C 3042.24,1669.7 3028.24,1601.03 3047,1525.5C 3075.7,1436.8 3135.54,1382.3 3226.5,1362C 3235.3,1360.67 3243.96,1359.5 3252.5,1358.5 Z"/></g>
<g><path style="opacity:1" fill="#df691a" d="M 3697.5,1361.5 C 3649.66,1361.17 3602,1361.5 3554.5,1362.5C 3553.96,1362.44 3553.62,1362.11 3553.5,1361.5C 3601.66,1360.17 3649.66,1360.17 3697.5,1361.5 Z"/></g>
<g><path style="opacity:1" fill="#fe6300" d="M 1964.5,1360.5 C 2033.17,1360.33 2101.83,1360.5 2170.5,1361C 2306.64,1371.14 2379.14,1444.31 2388,1580.5C 2390.31,1616.35 2385.98,1651.35 2375,1685.5C 2361.14,1725.73 2335.31,1755.56 2297.5,1775C 2331.75,1790.58 2357.59,1815.08 2375,1848.5C 2395.06,1890.69 2405.23,1935.19 2405.5,1982C 2406.22,2027.54 2398.05,2071.37 2381,2113.5C 2354.99,2167.83 2313.16,2204 2255.5,2222C 2243.71,2225.41 2231.71,2227.74 2219.5,2229C 2134.5,2229.5 2049.5,2229.67 1964.5,2229.5C 1964.5,1939.83 1964.5,1650.17 1964.5,1360.5 Z"/></g>
<g><path style="opacity:1" fill="#df691a" d="M 2636.5,1361.5 C 2594.17,1361.5 2551.83,1361.5 2509.5,1361.5C 2509.5,1589.17 2509.5,1816.83 2509.5,2044.5C 2508.5,1816.67 2508.17,1588.67 2508.5,1360.5C 2551.34,1360.17 2594,1360.5 2636.5,1361.5 Z"/></g>
<g><path style="opacity:1" fill="#fe6300" d="M 2636.5,1361.5 C 2636.01,1590.52 2636.51,1819.52 2638,2048.5C 2644.44,2073.27 2659.27,2091.11 2682.5,2102C 2721.99,2115.06 2753.49,2104.56 2777,2070.5C 2783.35,2058.63 2786.51,2045.96 2786.5,2032.5C 2787.5,1809 2787.83,1585.33 2787.5,1361.5C 2832.5,1361.5 2877.5,1361.5 2922.5,1361.5C 2922.5,1587.83 2922.5,1814.17 2922.5,2040.5C 2919.74,2113.22 2888.07,2169.38 2827.5,2209C 2782.02,2235.97 2733.02,2245.64 2680.5,2238C 2623.78,2227.57 2578.61,2199.07 2545,2152.5C 2522.48,2120.11 2510.65,2084.11 2509.5,2044.5C 2509.5,1816.83 2509.5,1589.17 2509.5,1361.5C 2551.83,1361.5 2594.17,1361.5 2636.5,1361.5 Z"/></g>
<g><path style="opacity:1" fill="#da6b24" d="M 2922.5,2040.5 C 2922.5,1814.17 2922.5,1587.83 2922.5,1361.5C 2877.5,1361.5 2832.5,1361.5 2787.5,1361.5C 2787.83,1585.33 2787.5,1809 2786.5,2032.5C 2786.5,1808.5 2786.5,1584.5 2786.5,1360.5C 2832.17,1360.5 2877.83,1360.5 2923.5,1360.5C 2923.83,1587.33 2923.5,1814 2922.5,2040.5 Z"/></g>
<g><path style="opacity:1" fill="#fe6300" d="M 3554.5,1362.5 C 3602,1361.5 3649.66,1361.17 3697.5,1361.5C 3729.23,1464.69 3761.56,1567.69 3794.5,1670.5C 3827.1,1567.36 3859.1,1464.02 3890.5,1360.5C 3938.83,1360.33 3987.17,1360.5 4035.5,1361C 3977.01,1528.48 3918.51,1695.98 3860,1863.5C 3859.5,1985.5 3859.33,2107.5 3859.5,2229.5C 3815.83,2229.5 3772.17,2229.5 3728.5,2229.5C 3728.67,2107.5 3728.5,1985.5 3728,1863.5C 3670.06,1696.51 3612.23,1529.51 3554.5,1362.5 Z"/></g>
<g><path style="opacity:1" fill="#fffcfb" d="M 3255.5,1385.5 C 3259.5,1385.5 3263.5,1385.5 3267.5,1385.5C 3267.5,1389.83 3267.5,1394.17 3267.5,1398.5C 3249.3,1398.73 3231.47,1401.39 3214,1406.5C 3213.23,1406.36 3212.56,1406.02 3212,1405.5C 3211.13,1401.74 3209.97,1398.07 3208.5,1394.5C 3223.55,1388.56 3239.21,1385.56 3255.5,1385.5 Z"/></g>
<g><path style="opacity:1" fill="#ffc49f" d="M 3255.5,1385.5 C 3259.63,1384.52 3263.97,1384.18 3268.5,1384.5C 3268.82,1389.36 3268.49,1394.03 3267.5,1398.5C 3267.5,1394.17 3267.5,1389.83 3267.5,1385.5C 3263.5,1385.5 3259.5,1385.5 3255.5,1385.5 Z"/></g>
<g><path style="opacity:1" fill="#fffefd" d="M 3178.5,1392.5 C 3179.5,1392.5 3180.5,1392.5 3181.5,1392.5C 3185.55,1424 3193.89,1454.33 3206.5,1483.5C 3194.29,1491.21 3183.46,1500.54 3174,1511.5C 3170.27,1516.23 3166.94,1521.23 3164,1526.5C 3162.61,1527.55 3161.11,1527.72 3159.5,1527C 3131.41,1514.48 3102.08,1506.64 3071.5,1503.5C 3093.26,1453.07 3128.93,1416.07 3178.5,1392.5 Z"/></g>
<g><path style="opacity:1" fill="#fffefd" d="M 3353.5,1392.5 C 3398.21,1411.7 3432.37,1442.7 3456,1485.5C 3458.77,1490.71 3461.27,1496.05 3463.5,1501.5C 3431.74,1505.81 3401.24,1514.48 3372,1527.5C 3361.36,1509.02 3346.86,1494.36 3328.5,1483.5C 3341.36,1454.41 3349.69,1424.08 3353.5,1392.5 Z"/></g>
<g><path style="opacity:1" fill="#0493d4" d="M 3252.5,1482.5 C 3305.84,1479.07 3343.67,1501.4 3366,1549.5C 3381.49,1598.02 3369.99,1638.85 3331.5,1672C 3293.08,1698.18 3253.41,1700.18 3212.5,1678C 3173.1,1651.2 3156.94,1614.03 3164,1566.5C 3176.51,1520.49 3206.01,1492.49 3252.5,1482.5 Z"/></g>
<g><path style="opacity:1" fill="#0393d4" d="M 2105.5,1493.5 C 2214.67,1479.17 2261.84,1526.5 2247,1635.5C 2243.57,1660.86 2232.41,1682.03 2213.5,1699C 2203.16,1707 2191.49,1712 2178.5,1714C 2154.2,1715.43 2129.87,1715.93 2105.5,1715.5C 2105.5,1641.5 2105.5,1567.5 2105.5,1493.5 Z"/></g>
<g><path style="opacity:1" fill="#fffaf7" d="M 3071.5,1537.5 C 3075.67,1538.56 3079.84,1539.56 3084,1540.5C 3083.37,1546.15 3082.54,1551.81 3081.5,1557.5C 3077.39,1557.48 3073.39,1556.81 3069.5,1555.5C 3068.47,1549.33 3069.13,1543.33 3071.5,1537.5 Z"/></g>
<g><path style="opacity:1" fill="#fffcfa" d="M 3065.5,1572.5 C 3070.17,1572.5 3074.83,1572.5 3079.5,1572.5C 3078.07,1595.91 3080.41,1618.91 3086.5,1641.5C 3082.35,1641.87 3078.35,1642.87 3074.5,1644.5C 3072.86,1642.07 3071.69,1639.41 3071,1636.5C 3066.32,1615.41 3064.49,1594.08 3065.5,1572.5 Z"/></g>
<g><path style="opacity:1" fill="#fffefd" d="M 3162.5,1649.5 C 3163.5,1649.41 3164.33,1649.75 3165,1650.5C 3175.67,1667.67 3189.5,1681.67 3206.5,1692.5C 3193.64,1721.61 3184.97,1751.94 3180.5,1783.5C 3140.84,1765.68 3109.34,1738.35 3086,1701.5C 3080.43,1693.02 3075.93,1684.02 3072.5,1674.5C 3103.96,1671.01 3133.96,1662.67 3162.5,1649.5 Z"/></g>
<g><path style="opacity:1" fill="#fffefd" d="M 3370.5,1650.5 C 3400.07,1663.02 3430.74,1671.69 3462.5,1676.5C 3439.61,1726.05 3403.28,1761.72 3353.5,1783.5C 3350.15,1751.62 3341.82,1721.12 3328.5,1692C 3345.66,1681.34 3359.66,1667.5 3370.5,1650.5 Z"/></g>
<g><path style="opacity:1" fill="#fffbf9" d="M 3259.5,1776.5 C 3261.95,1777.47 3264.61,1777.81 3267.5,1777.5C 3267.5,1781.83 3267.5,1786.17 3267.5,1790.5C 3248.15,1791.23 3229.32,1788.56 3211,1782.5C 3211.66,1778.52 3212.66,1774.52 3214,1770.5C 3214.41,1770.04 3214.91,1769.71 3215.5,1769.5C 3229.81,1774 3244.48,1776.33 3259.5,1776.5 Z"/></g>
<g><path style="opacity:1" fill="#ffc6a2" d="M 3259.5,1776.5 C 3262.5,1776.5 3265.5,1776.5 3268.5,1776.5C 3268.82,1781.36 3268.49,1786.03 3267.5,1790.5C 3267.5,1786.17 3267.5,1781.83 3267.5,1777.5C 3264.61,1777.81 3261.95,1777.47 3259.5,1776.5 Z"/></g>
<g><path style="opacity:1" fill="#0693d4" d="M 2105.5,1840.5 C 2126.84,1840.33 2148.17,1840.5 2169.5,1841C 2207.87,1843.26 2234.37,1862.09 2249,1897.5C 2261.93,1935.37 2264.93,1974.04 2258,2013.5C 2252.34,2039.66 2239.84,2061.83 2220.5,2080C 2204.32,2092.4 2185.98,2099.06 2165.5,2100C 2145.5,2100.5 2125.5,2100.67 2105.5,2100.5C 2105.5,2013.83 2105.5,1927.17 2105.5,1840.5 Z"/></g>
<g><path style="opacity:1" fill="#fcfefe" d="M 3258.5,1877.5 C 3280.84,1876.67 3291.67,1887.34 3291,1909.5C 3285.49,1926.18 3273.99,1933.01 3256.5,1930C 3242.74,1923.98 3236.57,1913.48 3238,1898.5C 3241.35,1887.98 3248.18,1880.98 3258.5,1877.5 Z"/></g>
<g><path style="opacity:1" fill="#fcfdfe" d="M 3227.5,1981.5 C 3260.71,1978.65 3292.71,1983.48 3323.5,1996C 3335.04,2001.27 3345.38,2008.27 3354.5,2017C 3411,2029.73 3458,2057.9 3495.5,2101.5C 3452.06,2151.9 3397.06,2181.4 3330.5,2190C 3311.56,2211.72 3287.89,2225.89 3259.5,2232.5C 3259.47,2219.21 3259.3,2205.88 3259,2192.5C 3258.8,2190.74 3258.3,2189.08 3257.5,2187.5C 3203.62,2176.82 3157.46,2152.15 3119,2113.5C 3100.43,2132.36 3079.6,2148.2 3056.5,2161C 3048.92,2164.71 3041.42,2168.54 3034,2172.5C 3042.93,2138.07 3045.6,2103.07 3042,2067.5C 3040.58,2055.59 3038.08,2043.92 3034.5,2032.5C 3034.83,2032.17 3035.17,2031.83 3035.5,2031.5C 3067.08,2045.76 3095.08,2065.09 3119.5,2089.5C 3144.4,2064.11 3173.23,2044.44 3206,2030.5C 3212.88,2015.62 3216.38,1999.95 3216.5,1983.5C 3220.39,1983.35 3224.05,1982.69 3227.5,1981.5 Z"/></g>
<g><path style="opacity:1" fill="#1296d5" d="M 3230.5,1996.5 C 3257.96,1994.35 3284.62,1997.85 3310.5,2007C 3313.96,2008.48 3317.29,2010.15 3320.5,2012C 3288.41,2009.88 3257.08,2013.71 3226.5,2023.5C 3226.17,2023 3225.83,2022.5 3225.5,2022C 3227.87,2013.63 3229.53,2005.13 3230.5,1996.5 Z"/></g>
<g><path style="opacity:1" fill="#0a95d5" d="M 3285.5,2026.5 C 3299.51,2026.43 3313.51,2026.77 3327.5,2027.5C 3324.56,2037.62 3325.06,2047.62 3329,2057.5C 3329.78,2060.08 3331.28,2062.08 3333.5,2063.5C 3337.48,2060.85 3341.15,2057.85 3344.5,2054.5C 3340.13,2047.12 3339.47,2039.45 3342.5,2031.5C 3353.83,2031.75 3364.83,2034.08 3375.5,2038.5C 3357.94,2068.32 3353.78,2099.99 3363,2133.5C 3366.15,2144.12 3370.65,2154.12 3376.5,2163.5C 3365.89,2168.07 3354.89,2170.9 3343.5,2172C 3339.27,2163.63 3339.6,2155.47 3344.5,2147.5C 3340.98,2144.15 3337.14,2141.15 3333,2138.5C 3326.22,2147.37 3323.89,2157.37 3326,2168.5C 3326.98,2170.74 3327.48,2173.07 3327.5,2175.5C 3305.73,2177.27 3284.06,2176.43 3262.5,2173C 3260.11,2171.55 3258.61,2169.39 3258,2166.5C 3256.59,2159.66 3257.76,2153.33 3261.5,2147.5C 3257.98,2144.15 3254.14,2141.15 3250,2138.5C 3243.27,2147.34 3241.11,2157.17 3243.5,2168C 3199.58,2157.13 3162.08,2135.29 3131,2102.5C 3130.33,2101.5 3130.33,2100.5 3131,2099.5C 3162.08,2067.63 3199.25,2045.96 3242.5,2034.5C 3241.65,2043.27 3243.15,2051.6 3247,2059.5C 3247.94,2061.06 3249.11,2062.39 3250.5,2063.5C 3254.76,2061.21 3258.42,2058.21 3261.5,2054.5C 3257.1,2047.15 3256.44,2039.48 3259.5,2031.5C 3268.1,2028.96 3276.77,2027.29 3285.5,2026.5 Z"/></g>
<g><path style="opacity:1" fill="#0694d5" d="M 3389.5,2043.5 C 3422.5,2056.15 3450.84,2075.49 3474.5,2101.5C 3451.36,2126.41 3424.03,2145.41 3392.5,2158.5C 3384.63,2148.43 3379.13,2137.09 3376,2124.5C 3369.48,2095.6 3373.98,2068.6 3389.5,2043.5 Z"/></g>
<g><path style="opacity:1" fill="#fbfdfe" d="M 3206.5,2048.5 C 3211.62,2050.27 3215.95,2053.27 3219.5,2057.5C 3214.19,2066.32 3214.19,2075.15 3219.5,2084C 3216.24,2087.63 3212.57,2090.8 3208.5,2093.5C 3200.98,2084.08 3198.48,2073.41 3201,2061.5C 3202.31,2056.88 3204.15,2052.55 3206.5,2048.5 Z"/></g>
<g><path style="opacity:1" fill="#fbfdfe" d="M 3284.5,2048.5 C 3289.05,2050.71 3293.05,2053.71 3296.5,2057.5C 3290.9,2066.62 3291.23,2075.45 3297.5,2084C 3293.67,2087.17 3289.83,2090.33 3286,2093.5C 3277.43,2082.29 3275.43,2069.96 3280,2056.5C 3281.26,2053.64 3282.76,2050.98 3284.5,2048.5 Z"/></g>
<g><path style="opacity:1" fill="#1d99d7" d="M 3055.5,2059.5 C 3070.52,2067.35 3084.19,2077.19 3096.5,2089C 3083.37,2083.44 3070.37,2077.27 3057.5,2070.5C 3056.08,2066.97 3055.41,2063.31 3055.5,2059.5 Z"/></g>
<g><path style="opacity:1" fill="#fbfdfe" d="M 3168.5,2078.5 C 3173.05,2080.71 3177.05,2083.71 3180.5,2087.5C 3175.2,2096.36 3175.2,2105.19 3180.5,2114C 3177.34,2117.66 3173.67,2120.82 3169.5,2123.5C 3161.6,2112.97 3159.44,2101.3 3163,2088.5C 3164.59,2084.98 3166.43,2081.65 3168.5,2078.5 Z"/></g>
<g><path style="opacity:1" fill="#fbfdfe" d="M 3242.5,2078.5 C 3247.05,2080.71 3251.05,2083.71 3254.5,2087.5C 3248.93,2096.75 3249.26,2105.75 3255.5,2114.5C 3251.58,2117.38 3247.74,2120.38 3244,2123.5C 3233.44,2108.86 3232.94,2093.86 3242.5,2078.5 Z"/></g>
<g><path style="opacity:1" fill="#fbfdfe" d="M 3325.5,2078.5 C 3330.05,2080.71 3334.05,2083.71 3337.5,2087.5C 3332.2,2096.32 3332.2,2105.15 3337.5,2114C 3334.34,2117.66 3330.67,2120.82 3326.5,2123.5C 3316.38,2108.68 3316.05,2093.68 3325.5,2078.5 Z"/></g>
<g><path style="opacity:1" fill="#0895d5" d="M 3057.5,2079.5 C 3069.6,2085.05 3081.6,2090.88 3093.5,2097C 3081.84,2097.5 3070.17,2097.67 3058.5,2097.5C 3058.7,2091.45 3058.36,2085.45 3057.5,2079.5 Z"/></g>
<g><path style="opacity:1" fill="#fafdfe" d="M 3414.5,2089.5 C 3424.84,2088.02 3430.01,2092.36 3430,2102.5C 3428.58,2108.47 3424.74,2111.47 3418.5,2111.5C 3409.98,2109.47 3406.81,2104.14 3409,2095.5C 3410.36,2092.98 3412.19,2090.98 3414.5,2089.5 Z"/></g>
<g><path style="opacity:1" fill="#1496d6" d="M 3058.5,2105.5 C 3070.17,2105.33 3081.84,2105.5 3093.5,2106C 3081.83,2111.83 3070.17,2117.67 3058.5,2123.5C 3057.96,2117.55 3057.96,2111.55 3058.5,2105.5 Z"/></g>
<g><path style="opacity:1" fill="#fbfdfe" d="M 3207.5,2109.5 C 3212.05,2111.71 3216.05,2114.71 3219.5,2118.5C 3214.19,2127.32 3214.19,2136.15 3219.5,2145C 3216.34,2148.66 3212.67,2151.82 3208.5,2154.5C 3201.31,2145.08 3198.81,2134.41 3201,2122.5C 3202.65,2117.86 3204.82,2113.53 3207.5,2109.5 Z"/></g>
<g><path style="opacity:1" fill="#fafdfe" d="M 3284.5,2109.5 C 3289.05,2111.71 3293.05,2114.71 3296.5,2118.5C 3291.2,2127.32 3291.2,2136.15 3296.5,2145C 3293.34,2148.66 3289.67,2151.82 3285.5,2154.5C 3275.23,2139.7 3274.89,2124.7 3284.5,2109.5 Z"/></g>
<g><path style="opacity:1" fill="#1f99d7" d="M 3094.5,2113.5 C 3095.24,2113.37 3095.91,2113.54 3096.5,2114C 3084.06,2125.05 3070.72,2134.89 3056.5,2143.5C 3056.17,2141.83 3055.83,2140.17 3055.5,2138.5C 3055.29,2135.99 3055.95,2133.82 3057.5,2132C 3070.16,2126.29 3082.49,2120.13 3094.5,2113.5 Z"/></g>
<g><path style="opacity:1" fill="#1096d6" d="M 3273.5,2189.5 C 3284.76,2191.01 3296.1,2191.85 3307.5,2192C 3298,2200.26 3287.33,2206.76 3275.5,2211.5C 3274.64,2204.18 3273.97,2196.84 3273.5,2189.5 Z"/></g>
</svg>
