<svg id="svg" version="1.1" xmlns="http://www.w3.org/2000/svg" xmlns:xlink="http://www.w3.org/1999/xlink" width="400" height="170.35248672139065" viewBox="0, 0, 400,170.35248672139065"><g id="svgg"><path id="path0" d="M245.013 0.354 C 243.676 0.531,242.104 0.796,241.521 0.943 C 240.937 1.089,240.364 1.218,240.247 1.229 C 240.130 1.240,240.034 1.301,240.034 1.364 C 240.034 1.427,239.593 1.577,239.055 1.698 C 237.668 2.007,236.306 2.458,235.151 2.989 C 234.604 3.241,233.857 3.554,233.490 3.685 C 233.123 3.816,232.721 4.008,232.596 4.112 C 232.470 4.216,232.367 4.234,232.365 4.152 C 232.364 4.070,232.306 4.090,232.238 4.195 C 232.169 4.300,231.576 4.651,230.920 4.974 C 230.264 5.298,229.382 5.780,228.961 6.047 C 228.539 6.314,228.156 6.527,228.109 6.521 C 228.062 6.516,227.802 6.675,227.532 6.876 C 227.051 7.232,226.222 7.834,224.579 9.020 C 224.131 9.344,223.497 9.864,223.169 10.178 C 222.841 10.491,222.362 10.875,222.104 11.032 C 221.846 11.189,221.635 11.413,221.635 11.530 C 221.635 11.647,221.474 11.829,221.276 11.935 C 220.942 12.114,218.739 14.297,218.739 14.449 C 218.739 14.487,218.366 14.926,217.911 15.424 C 217.455 15.923,216.723 16.815,216.283 17.407 C 215.843 17.999,215.390 18.599,215.276 18.739 C 215.161 18.880,214.768 19.493,214.401 20.102 C 214.035 20.711,213.682 21.248,213.618 21.295 C 213.554 21.342,213.254 21.878,212.950 22.487 C 212.646 23.096,212.301 23.710,212.183 23.850 C 211.862 24.231,210.240 28.029,209.854 29.302 C 209.669 29.911,209.417 30.639,209.293 30.920 C 209.169 31.201,208.865 32.313,208.617 33.390 C 208.370 34.468,208.119 35.541,208.059 35.775 C 208.000 36.009,207.965 36.262,207.981 36.336 C 207.998 36.410,207.943 36.601,207.860 36.762 C 207.392 37.658,207.222 48.622,207.644 50.681 C 207.759 51.244,207.869 51.857,207.889 52.044 C 207.908 52.232,207.972 52.462,208.031 52.555 C 208.090 52.649,208.192 53.071,208.259 53.492 C 208.434 54.605,209.237 57.822,209.365 57.922 C 209.424 57.968,209.690 58.697,209.955 59.540 C 210.220 60.383,210.614 61.418,210.831 61.840 C 211.047 62.261,211.386 63.028,211.584 63.543 C 211.782 64.059,212.035 64.557,212.147 64.651 C 212.259 64.744,212.601 65.319,212.907 65.928 C 213.421 66.953,214.768 69.196,215.106 69.591 C 215.186 69.685,215.532 70.146,215.874 70.616 C 216.216 71.086,216.654 71.614,216.847 71.789 C 217.040 71.964,217.165 72.160,217.126 72.224 C 217.086 72.289,217.682 73.003,218.450 73.812 C 219.218 74.620,219.969 75.420,220.117 75.588 C 221.117 76.719,223.936 79.101,225.623 80.241 C 226.176 80.614,226.563 80.920,226.484 80.920 C 226.404 80.920,226.701 81.150,227.145 81.431 C 227.588 81.712,227.991 81.942,228.041 81.942 C 228.091 81.942,228.376 82.125,228.674 82.348 C 228.972 82.571,229.676 82.973,230.239 83.241 C 230.801 83.509,231.351 83.814,231.461 83.918 C 231.571 84.022,232.107 84.283,232.653 84.498 C 233.199 84.714,233.876 85.024,234.157 85.188 C 234.438 85.351,235.549 85.772,236.627 86.122 C 237.704 86.472,238.664 86.819,238.760 86.894 C 238.931 87.028,243.883 88.091,244.549 88.137 C 244.736 88.150,244.928 88.208,244.974 88.266 C 245.139 88.472,249.630 88.771,252.100 88.741 C 255.144 88.703,258.675 88.385,259.370 88.085 C 259.557 88.004,260.477 87.802,261.414 87.636 C 263.086 87.340,263.972 87.098,266.014 86.381 C 266.576 86.183,267.304 85.936,267.632 85.832 C 267.960 85.728,269.007 85.270,269.959 84.814 C 270.911 84.359,271.774 83.986,271.876 83.986 C 271.978 83.986,272.061 83.927,272.061 83.853 C 272.061 83.780,272.635 83.455,273.337 83.129 C 274.039 82.804,274.614 82.485,274.615 82.419 C 274.616 82.353,275.115 82.021,275.724 81.680 C 276.333 81.340,276.831 80.996,276.831 80.917 C 276.831 80.837,276.978 80.726,277.157 80.669 C 277.336 80.612,277.777 80.340,278.137 80.063 C 278.496 79.787,278.868 79.503,278.962 79.431 C 279.849 78.762,282.883 76.057,283.379 75.494 C 283.572 75.274,284.076 74.726,284.497 74.276 C 285.645 73.051,286.000 72.599,285.897 72.495 C 285.846 72.444,285.931 72.402,286.087 72.402 C 286.244 72.402,286.371 72.318,286.371 72.216 C 286.371 72.015,286.815 71.403,287.688 70.398 C 287.991 70.049,288.326 69.553,288.433 69.294 C 288.540 69.036,288.690 68.825,288.765 68.825 C 288.841 68.825,289.185 68.269,289.528 67.589 C 289.872 66.910,290.284 66.201,290.443 66.014 C 290.603 65.826,290.921 65.251,291.150 64.736 C 291.380 64.221,291.625 63.773,291.695 63.742 C 291.765 63.711,291.823 63.548,291.823 63.380 C 291.823 63.212,291.935 62.981,292.073 62.867 C 292.210 62.752,292.309 62.609,292.293 62.548 C 292.253 62.399,292.958 60.504,293.253 59.966 C 293.530 59.461,294.378 56.714,294.378 56.321 C 294.378 56.171,294.438 56.048,294.510 56.048 C 294.622 56.048,294.797 55.333,295.341 52.645 C 295.569 51.516,295.911 48.171,295.911 47.068 C 295.911 46.385,295.976 45.826,296.054 45.826 C 296.241 45.826,296.242 42.774,296.055 42.658 C 295.976 42.609,295.911 42.053,295.911 41.423 C 295.911 39.338,294.948 32.969,294.554 32.453 C 294.433 32.294,293.587 29.516,293.400 28.663 C 293.354 28.452,293.252 28.279,293.172 28.279 C 293.093 28.279,292.918 27.915,292.784 27.470 C 292.544 26.678,292.052 25.552,291.575 24.702 C 291.444 24.468,291.120 23.816,290.856 23.254 C 290.591 22.692,290.333 22.193,290.281 22.147 C 290.230 22.100,289.963 21.678,289.687 21.210 C 289.096 20.203,289.028 20.096,288.223 18.895 C 287.883 18.388,287.442 17.827,287.244 17.648 C 287.045 17.470,286.882 17.251,286.882 17.162 C 286.882 17.073,286.691 16.772,286.457 16.494 C 286.222 16.215,286.030 16.051,286.030 16.128 C 286.030 16.206,285.889 16.039,285.717 15.758 C 285.546 15.477,284.935 14.749,284.359 14.140 C 283.784 13.531,283.311 12.975,283.309 12.905 C 283.307 12.834,283.242 12.777,283.165 12.777 C 283.088 12.777,282.606 12.374,282.094 11.882 C 280.826 10.663,279.030 9.114,278.884 9.114 C 278.818 9.114,278.515 8.865,278.211 8.560 C 277.906 8.256,277.583 8.007,277.493 8.007 C 277.325 8.007,276.309 7.338,276.144 7.119 C 276.094 7.053,275.596 6.755,275.037 6.458 C 274.478 6.161,273.980 5.856,273.931 5.779 C 273.783 5.549,270.195 3.768,269.090 3.376 C 268.522 3.175,267.911 2.888,267.731 2.740 C 267.550 2.592,267.452 2.554,267.511 2.656 C 267.570 2.758,267.257 2.665,266.816 2.448 C 266.375 2.232,265.892 2.053,265.744 2.050 C 265.596 2.047,264.752 1.811,263.870 1.525 C 259.333 0.056,251.115 -0.454,245.013 0.354 M0.000 84.421 L 0.000 168.502 24.915 168.438 C 51.887 168.369,52.223 168.358,54.429 167.463 C 54.617 167.387,55.460 167.152,56.303 166.941 C 57.147 166.730,57.909 166.493,57.998 166.413 C 58.087 166.334,58.298 166.269,58.467 166.269 C 58.635 166.269,58.773 166.193,58.773 166.099 C 58.773 166.005,58.863 165.928,58.973 165.928 C 59.498 165.928,61.814 164.918,63.629 163.898 C 64.284 163.529,65.272 162.986,65.823 162.690 C 66.374 162.395,67.025 161.968,67.269 161.741 C 67.514 161.514,67.795 161.329,67.895 161.329 C 67.995 161.329,68.369 161.060,68.727 160.733 C 69.086 160.405,69.415 160.136,69.460 160.136 C 69.539 160.136,69.788 159.939,71.357 158.628 C 72.410 157.748,72.769 157.398,73.248 156.783 C 73.479 156.486,73.725 156.279,73.795 156.322 C 73.864 156.364,74.037 156.174,74.180 155.898 C 74.323 155.622,74.614 155.252,74.826 155.076 C 75.039 154.900,75.290 154.637,75.383 154.490 C 75.593 154.163,76.586 152.831,76.914 152.436 C 77.047 152.276,77.269 151.925,77.408 151.657 C 77.547 151.388,77.779 151.070,77.923 150.950 C 78.068 150.830,78.425 150.222,78.718 149.599 C 79.011 148.976,79.370 148.332,79.517 148.167 C 79.664 148.002,80.006 147.313,80.278 146.637 C 80.550 145.960,80.833 145.367,80.907 145.318 C 80.981 145.270,81.292 144.502,81.599 143.612 C 81.905 142.721,82.232 141.898,82.324 141.782 C 82.416 141.666,82.445 141.452,82.389 141.305 C 82.333 141.158,82.348 141.076,82.422 141.122 C 82.583 141.222,84.234 134.364,84.488 132.538 C 84.740 130.726,85.008 127.672,85.008 126.608 C 85.008 126.101,85.077 125.746,85.165 125.801 C 85.360 125.921,85.361 117.181,85.166 116.546 C 85.091 116.300,84.945 115.029,84.842 113.720 C 84.639 111.140,84.046 107.180,83.822 106.902 C 83.745 106.807,83.520 105.963,83.322 105.026 C 82.864 102.856,82.448 101.301,82.295 101.193 C 82.230 101.146,81.966 100.456,81.710 99.659 C 81.454 98.863,80.864 97.430,80.400 96.476 C 79.937 95.521,79.557 94.665,79.557 94.573 C 79.557 94.482,79.490 94.381,79.408 94.350 C 79.327 94.319,79.055 93.910,78.804 93.441 C 78.226 92.362,76.966 90.485,76.504 90.016 C 76.309 89.819,76.150 89.603,76.150 89.535 C 76.150 89.468,76.054 89.314,75.937 89.192 C 75.820 89.071,75.379 88.568,74.957 88.076 C 73.542 86.422,71.254 84.247,70.630 83.963 C 70.393 83.855,70.231 83.713,70.271 83.648 C 70.311 83.583,70.021 83.351,69.627 83.132 C 69.232 82.913,68.680 82.564,68.399 82.356 C 68.118 82.148,67.236 81.658,66.440 81.268 C 64.883 80.505,64.496 80.239,64.944 80.239 C 65.283 80.239,66.267 79.693,66.268 79.504 C 66.269 79.429,66.354 79.419,66.459 79.484 C 66.563 79.548,66.697 79.524,66.757 79.430 C 66.816 79.336,67.210 79.039,67.632 78.769 C 70.075 77.208,73.189 74.305,74.628 72.246 C 76.330 69.812,76.641 69.335,76.526 69.333 C 76.460 69.332,76.491 69.274,76.596 69.205 C 76.701 69.136,77.037 68.582,77.342 67.973 C 77.648 67.364,77.983 66.809,78.088 66.740 C 78.193 66.671,78.220 66.614,78.148 66.612 C 78.075 66.611,78.127 66.437,78.263 66.227 C 78.398 66.016,78.662 65.422,78.848 64.906 C 79.035 64.391,79.349 63.548,79.547 63.032 C 79.745 62.517,80.101 61.329,80.338 60.392 C 80.576 59.455,80.843 58.497,80.933 58.262 C 82.061 55.314,82.281 42.534,81.318 35.945 C 81.174 34.962,81.051 34.061,81.045 33.944 C 81.039 33.827,80.970 33.731,80.892 33.731 C 80.813 33.731,80.750 33.575,80.750 33.385 C 80.750 32.904,79.717 28.574,79.552 28.365 C 79.479 28.271,79.134 27.351,78.787 26.320 C 78.439 25.290,78.106 24.408,78.047 24.361 C 77.873 24.224,77.172 22.670,77.172 22.420 C 77.172 22.295,77.013 21.990,76.819 21.744 C 76.625 21.497,76.522 21.295,76.590 21.295 C 76.658 21.295,76.600 21.161,76.460 20.997 C 76.320 20.833,76.035 20.353,75.825 19.932 C 75.615 19.510,75.353 19.088,75.243 18.994 C 75.133 18.899,74.863 18.465,74.644 18.030 C 74.425 17.594,74.117 17.096,73.960 16.924 C 73.804 16.751,73.387 16.205,73.035 15.710 C 71.949 14.184,69.511 11.584,69.166 11.584 C 69.061 11.584,69.017 11.516,69.069 11.433 C 69.120 11.349,68.952 11.144,68.695 10.976 C 68.438 10.808,67.960 10.412,67.632 10.096 C 67.304 9.780,66.748 9.371,66.397 9.187 C 66.046 9.002,65.758 8.774,65.758 8.679 C 65.758 8.585,65.624 8.457,65.460 8.396 C 65.062 8.247,63.511 7.304,63.253 7.053 C 63.139 6.943,62.584 6.639,62.017 6.378 C 61.451 6.117,60.988 5.835,60.988 5.752 C 60.988 5.669,60.906 5.652,60.806 5.714 C 60.706 5.776,60.534 5.708,60.423 5.564 C 60.229 5.312,58.165 4.411,57.856 4.443 C 57.772 4.451,57.657 4.385,57.600 4.294 C 57.471 4.092,55.466 3.282,54.725 3.134 C 54.425 3.074,54.215 2.966,54.260 2.895 C 54.327 2.786,53.526 2.520,52.470 2.301 C 52.330 2.272,51.553 2.087,50.743 1.890 C 49.934 1.694,49.148 1.533,48.997 1.533 C 48.846 1.533,48.722 1.467,48.722 1.385 C 48.722 1.213,45.717 0.751,43.015 0.509 C 41.909 0.410,32.710 0.341,20.571 0.341 L 0.000 0.341 0.000 84.421 M104.987 68.014 C 105.014 105.236,105.091 135.920,105.158 136.201 C 105.225 136.482,105.306 136.865,105.340 137.053 C 105.373 137.240,105.442 137.509,105.494 137.649 C 105.545 137.790,105.677 138.453,105.787 139.124 C 105.898 139.794,106.138 140.906,106.322 141.594 C 106.506 142.282,106.666 142.941,106.679 143.058 C 106.691 143.175,106.752 143.271,106.816 143.271 C 106.879 143.271,107.071 143.750,107.243 144.336 C 107.415 144.921,107.628 145.496,107.717 145.613 C 107.806 145.730,107.834 145.826,107.781 145.826 C 107.666 145.826,108.164 147.065,108.329 147.189 C 108.391 147.236,108.702 147.849,109.020 148.552 C 109.338 149.255,109.652 149.868,109.717 149.915 C 109.783 149.962,110.058 150.422,110.328 150.937 C 110.597 151.452,110.904 151.951,111.010 152.044 C 111.116 152.138,111.479 152.655,111.817 153.194 C 112.155 153.733,112.497 154.174,112.577 154.174 C 112.657 154.174,112.807 154.359,112.910 154.586 C 113.091 154.983,113.319 155.289,114.055 156.119 C 114.242 156.330,114.855 157.030,115.417 157.673 C 116.637 159.067,116.681 159.111,118.065 160.307 C 118.662 160.822,119.274 161.359,119.425 161.499 C 119.995 162.032,121.110 162.862,121.255 162.862 C 121.338 162.862,121.592 163.062,121.819 163.306 C 122.046 163.550,122.385 163.822,122.572 163.910 C 123.225 164.215,123.764 164.561,123.595 164.565 C 123.501 164.567,124.037 164.886,124.787 165.274 C 125.537 165.662,126.188 166.025,126.235 166.082 C 126.338 166.206,126.885 166.471,128.024 166.948 C 128.492 167.145,129.067 167.409,129.302 167.536 C 129.819 167.817,132.073 168.584,132.836 168.739 C 133.141 168.801,133.390 168.911,133.390 168.985 C 133.390 169.163,136.645 169.802,139.124 170.109 C 141.452 170.398,148.018 170.442,150.341 170.185 C 152.245 169.974,156.614 169.159,156.729 168.993 C 156.776 168.925,157.543 168.661,158.433 168.406 C 159.323 168.152,160.396 167.764,160.818 167.544 C 161.239 167.325,162.082 166.943,162.689 166.695 C 163.297 166.447,163.834 166.191,163.882 166.126 C 163.930 166.061,164.544 165.712,165.247 165.350 C 165.950 164.987,166.563 164.637,166.610 164.571 C 166.657 164.505,167.117 164.171,167.632 163.829 C 171.444 161.299,175.185 157.726,177.888 154.032 C 178.345 153.407,178.814 152.781,178.929 152.641 C 179.045 152.500,179.336 152.040,179.576 151.618 C 179.815 151.197,180.190 150.545,180.409 150.170 C 180.957 149.231,181.772 147.557,181.772 147.371 C 181.772 147.287,181.850 147.192,181.945 147.160 C 182.131 147.098,183.119 144.396,183.129 143.922 C 183.132 143.765,183.232 143.535,183.351 143.411 C 183.597 143.155,184.226 140.708,184.504 138.927 C 184.606 138.271,184.757 137.581,184.838 137.394 C 185.317 136.289,185.350 131.782,185.350 66.823 L 185.349 0.341 171.978 0.341 L 158.608 0.341 158.557 66.312 C 158.529 102.596,158.448 132.551,158.377 132.879 C 158.146 133.949,157.549 135.858,157.418 135.945 C 157.348 135.992,157.021 136.567,156.690 137.223 C 155.057 140.468,150.118 144.123,147.365 144.123 C 147.212 144.123,147.001 144.209,146.896 144.314 C 146.597 144.612,142.341 144.580,141.967 144.276 C 141.711 144.069,141.692 144.071,141.823 144.293 C 141.957 144.520,141.938 144.520,141.659 144.293 C 141.486 144.152,141.299 144.054,141.243 144.075 C 140.457 144.367,136.524 142.395,135.069 140.979 C 134.727 140.647,134.363 140.375,134.259 140.375 C 134.156 140.375,134.072 140.298,134.072 140.205 C 134.072 140.111,133.774 139.728,133.410 139.353 C 132.771 138.694,131.516 136.767,131.516 136.444 C 131.516 136.357,131.451 136.286,131.372 136.286 C 131.108 136.286,130.288 133.167,130.209 131.864 C 130.166 131.157,130.117 101.295,130.100 65.503 L 130.068 0.426 117.502 0.382 L 104.937 0.339 104.987 68.014 M306.783 0.429 C 306.685 0.527,307.179 2.132,307.469 2.658 C 307.567 2.836,307.961 3.940,308.344 5.111 C 308.727 6.282,309.317 8.083,309.655 9.114 C 309.993 10.145,310.324 11.026,310.391 11.073 C 310.458 11.120,310.766 12.040,311.075 13.118 C 311.385 14.195,311.722 15.184,311.824 15.316 C 311.969 15.501,312.639 17.480,313.012 18.825 C 313.038 18.918,313.181 19.263,313.329 19.591 C 313.576 20.137,314.536 23.094,314.557 23.373 C 314.562 23.439,314.661 23.588,314.779 23.705 C 314.896 23.822,314.991 24.005,314.991 24.111 C 314.991 24.217,315.213 24.988,315.484 25.823 C 315.755 26.659,316.004 27.457,316.038 27.598 C 316.071 27.739,316.143 27.892,316.197 27.939 C 316.251 27.986,316.512 28.714,316.778 29.557 C 317.044 30.400,317.472 31.627,317.729 32.283 C 317.986 32.939,318.328 33.935,318.490 34.497 C 318.652 35.060,318.965 35.924,319.187 36.419 C 319.409 36.914,319.593 37.412,319.595 37.526 C 319.601 37.801,320.215 39.642,320.517 40.290 C 320.648 40.571,320.968 41.529,321.227 42.419 C 321.486 43.309,321.786 44.152,321.893 44.293 C 322.000 44.434,322.342 45.430,322.652 46.508 C 322.963 47.585,323.315 48.620,323.435 48.807 C 323.554 48.995,323.855 49.838,324.104 50.681 C 324.352 51.525,324.697 52.521,324.869 52.896 C 325.041 53.271,325.396 54.306,325.657 55.196 C 325.918 56.086,326.191 56.897,326.264 56.997 C 326.433 57.229,327.594 60.828,327.596 61.126 C 327.597 61.249,327.666 61.307,327.750 61.255 C 327.834 61.203,327.951 61.371,328.011 61.628 C 328.304 62.898,329.050 65.176,329.208 65.287 C 329.306 65.356,329.320 65.413,329.238 65.415 C 329.156 65.416,329.164 65.513,329.254 65.630 C 329.345 65.747,329.677 66.687,329.993 67.717 C 330.308 68.748,330.612 69.629,330.668 69.676 C 330.790 69.778,331.516 71.922,331.516 72.180 C 331.516 72.279,331.646 72.657,331.804 73.020 C 331.962 73.383,332.103 73.718,332.116 73.765 C 332.130 73.812,332.221 74.042,332.319 74.276 C 332.417 74.510,332.669 75.315,332.878 76.065 C 333.088 76.814,333.327 77.470,333.409 77.522 C 333.491 77.574,333.835 78.571,334.173 79.737 C 334.511 80.903,334.879 82.010,334.991 82.198 C 335.102 82.385,335.407 83.228,335.668 84.072 C 335.930 84.915,336.248 85.835,336.376 86.116 C 336.504 86.397,336.857 87.432,337.161 88.416 C 337.464 89.399,337.770 90.244,337.840 90.293 C 337.910 90.341,338.254 91.338,338.604 92.507 C 338.954 93.677,339.290 94.672,339.350 94.719 C 339.410 94.766,339.704 95.581,340.002 96.531 L 340.545 98.257 340.545 133.372 L 340.545 168.486 353.279 168.442 L 366.014 168.399 366.099 133.049 C 366.167 104.911,366.228 97.596,366.401 97.189 C 366.521 96.908,366.727 96.448,366.859 96.167 C 366.992 95.886,367.351 94.851,367.657 93.867 C 367.964 92.883,368.262 92.040,368.319 91.993 C 368.377 91.946,368.677 91.065,368.985 90.034 C 369.294 89.003,369.687 87.853,369.858 87.479 C 370.030 87.104,370.336 86.222,370.538 85.520 C 370.740 84.817,371.009 84.050,371.137 83.816 C 371.265 83.582,371.613 82.585,371.910 81.601 C 372.207 80.618,372.499 79.774,372.559 79.727 C 372.619 79.681,372.921 78.837,373.231 77.853 C 373.541 76.870,373.937 75.749,374.111 75.362 C 374.285 74.976,374.627 73.967,374.870 73.122 C 375.114 72.276,375.453 71.289,375.624 70.928 C 375.796 70.568,376.114 69.659,376.331 68.910 C 376.548 68.160,376.769 67.509,376.821 67.462 C 376.874 67.415,376.950 67.261,376.991 67.121 C 377.144 66.590,378.200 63.447,378.307 63.203 C 378.368 63.062,378.406 62.890,378.392 62.819 C 378.377 62.749,378.441 62.692,378.535 62.692 C 378.629 62.692,378.705 62.581,378.705 62.447 C 378.705 62.098,379.574 59.410,379.766 59.164 C 379.855 59.051,379.870 58.867,379.801 58.755 C 379.729 58.639,379.747 58.595,379.841 58.653 C 379.976 58.737,380.707 56.648,381.002 55.336 C 381.037 55.179,381.178 54.873,381.316 54.655 C 381.453 54.437,381.617 54.067,381.681 53.833 C 382.013 52.596,382.697 50.500,382.791 50.426 C 382.851 50.379,383.075 49.766,383.289 49.063 C 383.914 47.016,384.170 46.272,384.315 46.086 C 384.389 45.990,384.512 45.681,384.588 45.400 C 384.663 45.119,384.737 44.851,384.751 44.804 C 384.766 44.757,384.916 44.259,385.086 43.697 C 385.256 43.135,385.444 42.636,385.505 42.589 C 385.565 42.543,385.871 41.699,386.184 40.716 C 386.496 39.732,386.851 38.697,386.972 38.416 C 387.249 37.770,387.601 36.722,388.087 35.094 C 388.297 34.391,388.569 33.624,388.693 33.390 C 388.931 32.939,389.779 30.360,389.779 30.086 C 389.779 29.997,389.883 29.804,390.010 29.656 C 390.138 29.508,390.454 28.620,390.713 27.683 C 390.972 26.746,391.279 25.865,391.396 25.724 C 391.512 25.583,391.853 24.627,392.153 23.597 C 392.453 22.568,392.777 21.633,392.872 21.518 C 392.967 21.404,393.267 20.568,393.540 19.660 C 393.812 18.753,394.106 17.925,394.192 17.821 C 394.350 17.631,395.584 13.730,395.612 13.330 C 395.621 13.213,395.675 13.118,395.734 13.118 C 395.793 13.118,395.979 12.677,396.149 12.138 C 396.318 11.599,396.609 10.737,396.794 10.221 C 396.980 9.706,397.439 8.365,397.815 7.240 C 398.191 6.116,398.555 5.119,398.624 5.026 C 398.693 4.932,398.958 4.165,399.213 3.322 C 399.468 2.479,399.749 1.613,399.838 1.397 C 400.315 0.244,401.588 0.341,385.953 0.341 L 371.905 0.341 371.557 1.509 C 371.366 2.152,371.210 2.765,371.210 2.872 C 371.210 2.979,371.147 3.066,371.071 3.066 C 370.955 3.066,370.840 3.411,370.418 5.026 C 370.042 6.465,369.744 7.427,369.653 7.496 C 369.591 7.543,369.249 8.654,368.893 9.966 C 368.537 11.278,368.197 12.389,368.137 12.436 C 368.077 12.483,367.821 13.288,367.567 14.225 C 367.314 15.162,366.961 16.312,366.784 16.780 C 366.607 17.249,366.302 18.207,366.107 18.910 C 365.912 19.612,365.663 20.494,365.554 20.869 C 365.445 21.244,365.369 21.608,365.386 21.678 C 365.403 21.748,365.349 21.806,365.266 21.806 C 365.183 21.806,365.075 22.017,365.025 22.274 C 364.859 23.141,363.987 26.149,363.878 26.235 C 363.818 26.282,363.728 26.474,363.678 26.661 C 362.893 29.589,362.657 30.411,362.559 30.566 C 362.494 30.667,362.434 30.788,362.424 30.835 C 362.414 30.882,362.362 31.035,362.307 31.175 C 362.252 31.316,362.044 32.006,361.844 32.709 C 361.645 33.411,361.329 34.446,361.143 35.009 C 360.658 36.474,360.537 36.881,360.111 38.501 C 359.901 39.297,359.648 40.005,359.549 40.074 C 359.451 40.143,359.429 40.200,359.502 40.202 C 359.574 40.203,359.526 40.415,359.395 40.673 C 359.263 40.931,359.102 41.410,359.037 41.738 C 358.891 42.476,358.279 44.600,358.081 45.060 C 357.842 45.612,357.297 47.372,357.053 48.382 C 356.928 48.897,356.749 49.372,356.654 49.437 C 356.560 49.502,356.536 49.608,356.600 49.672 C 356.663 49.735,356.609 49.994,356.479 50.245 C 356.349 50.497,356.050 51.426,355.815 52.311 C 355.580 53.195,355.228 54.340,355.032 54.855 C 354.837 55.371,354.522 56.392,354.333 57.126 C 354.144 57.860,353.920 58.588,353.836 58.745 C 353.752 58.901,353.629 59.259,353.562 59.540 C 353.444 60.041,353.437 60.034,353.201 59.199 C 353.069 58.731,352.811 57.888,352.628 57.325 C 352.444 56.763,352.026 55.422,351.696 54.344 C 351.367 53.267,351.030 52.232,350.946 52.044 C 350.826 51.774,349.702 48.014,349.521 47.274 C 349.498 47.181,349.432 47.027,349.375 46.934 C 349.243 46.718,348.181 43.088,348.166 42.802 C 348.159 42.685,348.097 42.589,348.026 42.589 C 347.955 42.589,347.846 42.340,347.783 42.036 C 347.669 41.484,346.903 38.816,346.719 38.330 C 346.666 38.190,346.609 38.037,346.593 37.990 C 346.577 37.943,346.515 37.790,346.455 37.649 C 346.396 37.509,346.160 36.742,345.931 35.945 C 345.477 34.367,345.357 33.991,345.143 33.475 C 344.978 33.080,344.426 31.148,344.108 29.855 C 343.987 29.363,343.826 28.961,343.750 28.961 C 343.674 28.961,343.624 28.903,343.639 28.833 C 343.654 28.763,343.621 28.590,343.567 28.450 C 343.427 28.087,342.565 25.041,342.458 24.532 C 342.409 24.297,342.312 24.067,342.243 24.020 C 342.174 23.974,341.875 23.023,341.578 21.907 C 341.281 20.791,340.938 19.680,340.817 19.437 C 340.696 19.194,340.348 18.113,340.043 17.036 C 339.739 15.958,339.425 14.997,339.345 14.899 C 339.265 14.802,339.158 14.495,339.107 14.218 C 338.967 13.455,338.012 10.282,337.982 10.477 C 337.967 10.571,337.895 10.417,337.823 10.136 C 337.243 7.896,336.578 5.621,336.380 5.196 C 336.248 4.915,335.928 3.918,335.667 2.981 C 335.407 2.044,335.142 1.239,335.078 1.193 C 335.015 1.146,334.934 0.954,334.898 0.767 C 334.836 0.438,307.107 0.105,306.783 0.429 M251.618 6.474 L 251.618 7.666 250.043 7.669 C 249.176 7.671,247.968 7.743,247.359 7.828 C 246.750 7.913,245.859 8.031,245.379 8.089 C 244.899 8.147,243.749 8.412,242.824 8.678 L 241.141 9.161 240.844 8.116 C 240.680 7.540,240.546 7.019,240.546 6.956 C 240.545 6.839,243.104 6.239,244.463 6.038 C 244.885 5.975,245.312 5.858,245.412 5.778 C 245.634 5.599,248.306 5.336,250.213 5.304 L 251.618 5.281 251.618 6.474 M234.822 7.027 C 234.854 7.144,234.976 7.815,235.092 8.518 C 235.208 9.221,235.322 9.911,235.345 10.051 C 235.368 10.192,235.429 10.422,235.481 10.562 C 235.532 10.703,235.661 11.316,235.767 11.925 C 236.093 13.793,236.675 16.264,236.811 16.356 C 236.882 16.404,236.992 16.672,237.056 16.952 C 237.321 18.128,238.070 20.367,238.236 20.483 C 238.348 20.561,238.351 20.610,238.245 20.613 C 238.132 20.617,238.132 20.660,238.245 20.744 C 238.339 20.813,238.657 21.585,238.953 22.461 C 239.563 24.269,239.546 24.328,238.210 25.025 C 237.507 25.391,235.096 27.510,234.412 28.363 C 234.178 28.655,233.737 29.158,233.432 29.481 C 233.128 29.804,232.835 30.202,232.782 30.366 C 232.729 30.530,232.616 30.664,232.530 30.664 C 232.444 30.664,232.179 31.048,231.942 31.516 C 231.705 31.985,231.406 32.368,231.279 32.368 C 231.010 32.368,229.921 31.952,229.302 31.613 C 229.067 31.485,228.186 31.171,227.342 30.915 C 226.499 30.660,225.771 30.398,225.724 30.335 C 225.608 30.177,223.394 29.553,221.678 29.196 C 220.905 29.035,220.273 28.844,220.273 28.772 C 220.273 28.700,220.138 28.645,219.974 28.650 C 219.810 28.654,219.063 28.538,218.313 28.392 C 217.564 28.246,216.318 28.037,215.545 27.928 C 214.772 27.818,214.140 27.672,214.140 27.602 C 214.140 27.298,216.430 22.833,216.676 22.658 C 216.742 22.611,217.017 22.189,217.286 21.721 C 217.555 21.252,217.900 20.754,218.053 20.613 C 218.206 20.473,218.590 19.955,218.905 19.463 C 219.220 18.971,219.531 18.569,219.597 18.569 C 219.662 18.569,219.936 18.249,220.207 17.858 C 220.750 17.072,223.730 14.024,224.792 13.168 C 226.868 11.493,228.086 10.562,228.200 10.562 C 228.271 10.562,228.490 10.401,228.687 10.204 C 229.113 9.778,231.979 8.092,232.908 7.720 C 233.267 7.576,233.560 7.378,233.560 7.278 C 233.560 7.179,233.609 7.147,233.668 7.206 C 233.727 7.265,233.936 7.201,234.132 7.064 C 234.568 6.758,234.746 6.749,234.822 7.027 M269.382 7.155 C 269.620 7.342,269.880 7.496,269.959 7.496 C 270.265 7.496,272.395 8.639,272.288 8.746 C 272.226 8.808,272.259 8.859,272.361 8.859 C 272.543 8.859,274.617 10.027,274.787 10.225 C 274.834 10.280,275.141 10.488,275.468 10.687 C 275.796 10.886,276.290 11.285,276.565 11.572 C 276.840 11.860,277.139 12.095,277.229 12.095 C 277.319 12.095,277.749 12.421,278.184 12.819 C 278.620 13.218,279.241 13.782,279.565 14.073 C 280.694 15.090,282.794 17.335,282.794 17.525 C 282.794 17.631,282.868 17.717,282.959 17.717 C 283.125 17.717,284.116 18.953,285.126 20.421 C 285.425 20.855,285.779 21.325,285.914 21.465 C 286.049 21.606,286.377 22.142,286.642 22.658 C 286.907 23.173,287.219 23.671,287.335 23.765 C 287.566 23.952,288.586 26.092,288.586 26.390 C 288.586 26.492,288.650 26.576,288.729 26.576 C 288.871 26.576,289.267 27.317,289.267 27.581 C 289.267 27.657,288.788 27.767,288.203 27.825 C 287.617 27.884,286.927 27.971,286.669 28.018 C 286.411 28.066,285.760 28.180,285.221 28.272 C 284.683 28.364,283.974 28.489,283.646 28.549 C 283.318 28.609,282.954 28.663,282.836 28.668 C 282.719 28.673,282.624 28.734,282.624 28.804 C 282.624 28.874,282.298 28.981,281.899 29.043 C 280.946 29.191,278.054 29.942,277.513 30.182 C 277.279 30.286,276.244 30.665,275.213 31.024 C 274.182 31.384,273.416 31.686,273.509 31.696 C 273.603 31.706,273.296 31.845,272.828 32.004 C 271.856 32.336,271.935 32.383,271.005 30.920 C 270.302 29.815,267.941 27.098,267.667 27.079 C 267.601 27.074,267.240 26.768,266.865 26.398 C 266.491 26.028,265.637 25.367,264.969 24.928 C 263.658 24.068,263.583 23.835,264.278 22.764 C 264.465 22.476,265.094 20.828,265.163 20.443 C 265.201 20.232,265.475 19.461,265.677 18.995 C 266.018 18.206,266.565 16.379,266.797 15.247 C 266.912 14.685,267.061 14.148,267.127 14.055 C 267.298 13.813,267.736 11.653,268.061 9.455 C 268.440 6.890,268.459 6.814,268.720 6.814 C 268.846 6.814,269.144 6.968,269.382 7.155 M253.918 24.193 C 256.003 24.423,259.718 25.571,260.628 26.265 C 260.851 26.436,261.116 26.576,261.215 26.576 C 261.315 26.576,261.925 26.940,262.571 27.385 C 263.217 27.830,263.895 28.279,264.077 28.383 C 264.259 28.487,264.616 28.797,264.870 29.072 C 265.124 29.346,265.543 29.704,265.801 29.866 C 266.058 30.028,266.271 30.255,266.273 30.370 C 266.275 30.485,266.543 30.808,266.869 31.089 C 267.195 31.369,267.462 31.662,267.462 31.740 C 267.462 31.819,267.803 32.326,268.219 32.867 C 268.636 33.409,269.183 34.304,269.434 34.856 C 269.686 35.408,269.949 35.899,270.018 35.945 C 270.207 36.072,271.210 39.179,271.210 39.638 C 271.210 39.856,271.278 40.034,271.362 40.034 C 271.446 40.034,271.518 40.207,271.524 40.417 C 271.529 40.628,271.608 41.222,271.700 41.738 C 271.917 42.960,271.917 45.852,271.699 46.934 C 271.605 47.402,271.525 47.958,271.521 48.169 C 271.517 48.379,271.446 48.552,271.362 48.552 C 271.278 48.552,271.210 48.730,271.210 48.948 C 271.210 49.615,270.197 52.435,269.579 53.490 C 269.258 54.038,268.995 54.566,268.995 54.662 C 268.995 54.759,268.804 55.052,268.572 55.315 C 267.864 56.113,267.802 56.198,267.802 56.373 C 267.802 56.650,265.253 59.252,264.321 59.927 C 263.846 60.270,263.409 60.621,263.350 60.706 C 263.241 60.861,262.306 61.425,260.788 62.251 C 260.120 62.615,259.075 63.051,258.348 63.272 C 258.254 63.300,257.909 63.442,257.581 63.587 C 255.735 64.404,249.715 64.636,247.141 63.990 C 245.453 63.565,242.358 62.295,241.842 61.815 C 241.656 61.641,241.437 61.499,241.355 61.499 C 241.134 61.499,239.315 60.230,238.943 59.816 C 238.764 59.617,238.546 59.455,238.458 59.455 C 238.027 59.455,235.267 56.141,234.414 54.600 C 234.207 54.225,233.930 53.797,233.799 53.649 C 233.668 53.501,233.558 53.271,233.555 53.138 C 233.552 53.005,233.437 52.747,233.300 52.565 C 233.162 52.384,233.049 52.120,233.049 51.980 C 233.049 51.840,232.901 51.414,232.720 51.033 C 230.771 46.941,231.442 38.433,234.012 34.646 C 234.252 34.293,234.593 33.732,234.771 33.399 C 235.105 32.773,235.632 32.094,236.584 31.061 C 236.889 30.730,237.138 30.391,237.138 30.307 C 237.138 30.222,237.195 30.152,237.266 30.150 C 237.336 30.148,237.930 29.640,238.586 29.020 C 239.242 28.400,239.989 27.819,240.247 27.729 C 240.504 27.639,240.682 27.511,240.642 27.446 C 240.601 27.380,241.119 27.062,241.792 26.739 C 242.465 26.416,243.115 26.057,243.236 25.942 C 243.464 25.726,244.870 25.260,246.508 24.858 C 247.023 24.731,247.490 24.564,247.545 24.485 C 247.795 24.133,251.741 23.952,253.918 24.193 M41.312 26.654 C 43.681 27.086,47.017 28.438,47.257 29.063 C 47.308 29.194,47.468 29.302,47.614 29.302 C 49.177 29.302,53.475 36.037,54.082 39.438 C 54.571 42.172,54.721 43.483,54.722 45.017 C 54.723 45.784,54.794 46.337,54.894 46.337 C 54.997 46.337,55.018 46.557,54.947 46.891 C 54.883 47.195,54.801 48.211,54.766 49.148 C 54.660 51.973,53.875 56.748,53.476 56.995 C 53.388 57.049,53.360 57.165,53.414 57.252 C 53.468 57.339,53.391 57.583,53.242 57.794 C 53.094 58.005,52.890 58.484,52.789 58.859 C 52.329 60.563,48.079 66.183,47.515 65.834 C 47.429 65.781,47.359 65.800,47.358 65.876 C 47.357 66.005,46.224 66.848,46.009 66.880 C 45.955 66.888,45.566 67.059,45.145 67.259 C 44.723 67.460,44.244 67.626,44.080 67.628 C 43.916 67.630,43.782 67.693,43.782 67.767 C 43.782 68.399,39.289 68.812,32.325 68.819 L 27.257 68.825 27.257 47.615 L 27.257 26.405 33.603 26.406 C 38.425 26.406,40.276 26.466,41.312 26.654 M215.205 35.114 C 216.046 35.283,216.147 35.348,216.076 35.668 C 216.032 35.868,215.911 36.517,215.806 37.112 L 215.617 38.194 214.495 38.075 C 213.878 38.010,213.354 37.938,213.331 37.917 C 213.271 37.860,213.624 35.910,213.749 35.605 C 213.846 35.369,213.892 35.232,213.948 35.009 C 213.979 34.887,214.137 34.900,215.205 35.114 M214.779 41.565 C 215.156 41.567,215.332 41.648,215.332 41.823 C 215.332 41.963,215.266 42.078,215.185 42.078 C 215.105 42.078,215.039 43.075,215.040 44.293 C 215.041 45.511,215.095 46.508,215.161 46.508 C 215.227 46.508,215.328 47.217,215.386 48.083 C 215.480 49.502,216.015 53.000,216.283 53.949 C 216.374 54.271,216.290 54.348,215.647 54.531 C 215.240 54.647,214.833 54.806,214.744 54.884 C 214.434 55.155,214.333 55.019,214.120 54.046 C 214.002 53.507,213.847 53.026,213.776 52.977 C 213.312 52.655,212.600 43.725,212.897 41.932 C 212.988 41.381,213.014 41.363,213.608 41.462 C 213.947 41.518,214.474 41.564,214.779 41.565 M231.877 56.942 C 232.973 59.017,236.192 62.234,239.178 64.239 L 239.538 64.480 239.017 65.928 C 238.731 66.725,238.447 67.491,238.387 67.632 C 238.326 67.773,238.289 67.945,238.303 68.015 C 238.318 68.086,238.263 68.143,238.179 68.143 C 238.096 68.143,237.988 68.354,237.938 68.612 C 237.810 69.270,236.961 72.089,236.788 72.429 C 236.611 72.775,236.038 75.163,235.771 76.661 C 235.663 77.270,235.532 77.883,235.481 78.024 C 235.429 78.164,235.369 78.394,235.346 78.535 C 234.967 80.878,234.882 81.377,234.830 81.553 C 234.758 81.794,233.313 81.250,232.406 80.640 C 232.099 80.433,231.504 80.098,231.085 79.895 C 230.666 79.693,230.324 79.457,230.324 79.372 C 230.324 79.286,230.257 79.236,230.176 79.259 C 230.094 79.282,229.435 78.880,228.710 78.365 C 227.985 77.849,227.240 77.340,227.053 77.234 C 226.867 77.127,226.431 76.763,226.084 76.424 C 225.738 76.086,225.389 75.809,225.310 75.809 C 225.231 75.809,224.698 75.355,224.125 74.799 C 223.552 74.243,222.676 73.400,222.178 72.925 C 221.680 72.450,221.306 72.061,221.349 72.061 C 221.391 72.061,221.147 71.765,220.806 71.403 C 219.835 70.369,219.241 69.647,218.759 68.914 C 218.514 68.542,218.198 68.113,218.058 67.960 C 217.808 67.689,216.708 65.930,215.616 64.055 C 215.033 63.053,214.273 61.329,214.415 61.329 C 214.705 61.329,216.995 60.951,217.206 60.869 C 217.347 60.814,217.681 60.787,217.949 60.808 C 218.218 60.830,218.396 60.780,218.345 60.698 C 218.294 60.616,218.434 60.534,218.656 60.516 C 218.877 60.498,219.773 60.321,220.645 60.123 C 221.518 59.926,222.462 59.726,222.743 59.679 C 223.024 59.633,223.599 59.454,224.020 59.281 C 224.692 59.007,227.398 58.096,228.109 57.905 C 228.250 57.867,228.403 57.796,228.450 57.746 C 228.564 57.625,231.206 56.602,231.468 56.578 C 231.581 56.567,231.766 56.731,231.877 56.942 M273.339 57.278 C 273.901 57.473,274.399 57.685,274.446 57.751 C 274.493 57.817,275.336 58.123,276.320 58.430 C 277.304 58.738,278.761 59.201,279.557 59.460 C 280.353 59.719,281.772 60.069,282.709 60.238 C 283.646 60.407,284.453 60.603,284.503 60.674 C 284.552 60.744,284.744 60.799,284.929 60.794 C 285.113 60.790,285.724 60.871,286.286 60.974 C 286.848 61.076,287.708 61.218,288.197 61.287 L 289.085 61.414 288.318 62.928 C 287.344 64.848,286.057 66.974,285.706 67.243 C 285.556 67.357,285.498 67.453,285.576 67.456 C 285.725 67.462,284.682 68.867,284.456 68.966 C 284.385 68.998,284.327 69.132,284.327 69.265 C 284.327 69.397,284.270 69.506,284.199 69.507 C 284.129 69.508,283.894 69.769,283.677 70.088 C 283.460 70.406,283.000 70.969,282.655 71.338 C 280.732 73.393,280.015 74.111,279.038 74.957 C 278.444 75.473,277.777 76.067,277.557 76.278 C 277.337 76.489,277.117 76.661,277.068 76.661 C 276.970 76.661,275.849 77.480,275.511 77.798 C 275.395 77.909,274.820 78.287,274.234 78.640 C 273.648 78.992,273.130 79.334,273.083 79.399 C 272.990 79.528,271.197 80.513,269.612 81.306 C 268.444 81.891,268.403 81.862,268.241 80.345 C 268.035 78.414,267.423 75.219,267.103 74.404 C 266.928 73.959,266.815 73.595,266.852 73.595 C 266.957 73.595,266.173 70.857,265.852 70.102 C 265.693 69.727,265.368 68.807,265.130 68.058 C 264.893 67.308,264.651 66.618,264.594 66.525 C 264.537 66.431,264.467 66.204,264.438 66.021 C 264.410 65.838,264.330 65.646,264.260 65.595 C 263.755 65.227,263.674 64.225,264.150 64.225 C 264.285 64.225,264.395 64.144,264.395 64.044 C 264.395 63.945,264.467 63.908,264.554 63.962 C 264.641 64.016,264.814 63.918,264.937 63.744 C 265.061 63.570,265.489 63.222,265.888 62.971 C 266.758 62.424,269.676 59.616,269.676 59.326 C 269.676 59.214,269.861 59.001,270.088 58.853 C 270.314 58.704,270.627 58.312,270.784 57.982 C 271.179 57.150,271.683 56.678,272.032 56.814 C 272.189 56.875,272.777 57.084,273.339 57.278 M243.186 79.990 C 244.508 80.313,247.554 80.750,248.486 80.750 C 248.886 80.750,249.257 80.820,249.310 80.905 C 249.363 80.991,249.693 81.060,250.044 81.058 C 251.742 81.050,251.618 80.961,251.618 82.198 C 251.618 83.293,251.613 83.305,251.150 83.300 C 250.402 83.292,246.464 82.978,245.997 82.889 C 245.762 82.845,245.042 82.725,244.396 82.624 C 243.750 82.522,243.098 82.375,242.948 82.298 C 242.798 82.221,242.270 82.062,241.775 81.946 C 240.781 81.713,240.783 81.722,241.361 80.366 C 241.665 79.652,241.741 79.636,243.186 79.990 M41.216 93.550 C 42.154 93.657,42.886 93.800,42.844 93.869 C 42.801 93.938,43.079 94.045,43.461 94.106 C 44.489 94.270,46.453 94.992,46.961 95.392 C 47.205 95.584,47.487 95.741,47.586 95.741 C 48.146 95.741,51.935 98.977,51.825 99.361 C 51.805 99.431,51.854 99.489,51.935 99.489 C 52.096 99.489,53.322 101.312,53.322 101.553 C 53.322 101.636,53.391 101.704,53.476 101.704 C 53.561 101.704,53.864 102.259,54.149 102.939 C 54.434 103.618,54.814 104.480,54.993 104.855 C 55.173 105.230,55.490 106.303,55.698 107.240 C 55.906 108.177,56.122 109.059,56.178 109.199 C 56.234 109.340,56.301 109.570,56.328 109.710 C 56.355 109.851,56.452 110.322,56.544 110.757 C 57.317 114.401,57.196 125.688,56.373 126.679 C 56.285 126.786,56.260 126.998,56.319 127.150 C 56.377 127.304,56.340 127.428,56.236 127.428 C 56.133 127.428,56.060 127.485,56.075 127.555 C 56.090 127.626,56.060 127.798,56.009 127.939 C 55.957 128.079,55.698 128.884,55.433 129.727 C 55.167 130.571,54.905 131.299,54.851 131.346 C 54.736 131.444,54.003 132.997,54.003 133.142 C 54.003 133.745,50.418 138.335,49.404 139.029 C 48.675 139.529,48.449 139.702,48.075 140.046 C 47.665 140.424,46.531 141.056,46.263 141.056 C 46.140 141.056,45.942 141.172,45.825 141.313 C 45.595 141.590,43.427 142.286,41.908 142.570 C 41.393 142.667,40.703 142.803,40.375 142.873 C 40.047 142.943,36.961 143.024,33.518 143.054 L 27.257 143.109 27.257 118.232 L 27.257 93.356 33.384 93.356 C 36.852 93.356,40.251 93.440,41.216 93.550 " stroke="none" fill="#fc6404" fill-rule="evenodd"></path><path id="path1" d="M249.898 100.165 C 245.913 100.879,244.385 106.279,247.333 109.224 C 250.545 112.431,256.096 110.414,256.354 105.945 C 256.582 102.005,253.755 99.473,249.898 100.165 M243.782 120.300 C 241.441 120.496,241.570 120.417,241.553 121.673 C 241.517 124.341,240.240 129.223,239.475 129.616 C 239.267 129.723,238.982 129.884,238.842 129.975 C 238.701 130.066,238.011 130.383,237.308 130.681 C 236.606 130.978,235.992 131.269,235.945 131.329 C 235.899 131.388,235.285 131.733,234.583 132.095 C 233.880 132.457,233.267 132.807,233.220 132.872 C 233.173 132.938,232.723 133.213,232.220 133.484 C 231.717 133.755,231.268 134.075,231.223 134.195 C 231.177 134.314,231.059 134.412,230.960 134.412 C 230.862 134.412,230.530 134.604,230.223 134.838 C 229.916 135.072,229.598 135.264,229.517 135.264 C 229.435 135.264,229.108 135.532,228.790 135.860 C 228.473 136.188,228.118 136.457,228.003 136.457 C 227.887 136.457,227.653 136.629,227.483 136.840 C 227.312 137.051,226.904 137.425,226.576 137.672 C 226.058 138.062,225.466 138.601,223.439 140.526 L 223.011 140.933 222.038 140.015 C 221.503 139.510,220.714 138.771,220.286 138.373 C 219.857 137.975,219.301 137.455,219.050 137.216 C 218.800 136.978,218.301 136.587,217.943 136.349 C 217.585 136.111,217.215 135.825,217.121 135.714 C 217.027 135.603,216.529 135.247,216.014 134.923 C 215.498 134.600,215.000 134.246,214.906 134.137 C 214.813 134.028,214.353 133.732,213.884 133.477 C 213.416 133.223,212.917 132.917,212.777 132.796 C 212.636 132.675,212.023 132.328,211.414 132.024 C 210.805 131.721,210.268 131.416,210.221 131.347 C 210.175 131.277,209.561 130.970,208.859 130.664 C 208.156 130.358,207.430 130.003,207.245 129.875 C 206.607 129.433,205.968 129.735,206.459 130.247 C 207.344 131.170,208.512 141.565,208.206 145.801 C 207.925 149.694,206.815 156.388,206.451 156.388 C 206.370 156.388,206.303 156.580,206.303 156.814 C 206.303 157.097,206.398 157.240,206.584 157.240 C 206.899 157.240,212.038 154.748,212.125 154.554 C 212.156 154.485,212.679 154.170,213.288 153.853 C 213.897 153.535,214.472 153.188,214.566 153.080 C 214.659 152.972,215.105 152.669,215.556 152.408 C 216.006 152.146,216.417 151.823,216.468 151.690 C 216.519 151.557,216.630 151.448,216.715 151.448 C 217.097 151.448,218.856 149.996,221.307 147.658 C 222.167 146.838,222.925 146.167,222.993 146.167 C 223.108 146.167,224.718 147.617,225.775 148.672 C 226.037 148.934,226.469 149.302,226.734 149.489 C 227.000 149.676,227.744 150.257,228.387 150.780 C 229.031 151.303,229.902 151.951,230.324 152.219 C 230.745 152.488,231.244 152.839,231.431 153.000 C 231.618 153.161,232.232 153.540,232.794 153.842 C 233.356 154.145,233.931 154.488,234.072 154.606 C 234.437 154.913,237.916 156.625,238.927 156.996 C 239.395 157.167,239.817 157.361,239.864 157.427 C 239.911 157.492,240.677 157.787,241.567 158.081 C 242.457 158.376,243.339 158.690,243.526 158.780 C 243.985 159.000,246.813 159.700,248.339 159.971 C 249.442 160.167,249.574 160.232,249.574 160.575 C 249.574 160.787,249.659 160.988,249.762 161.022 C 250.032 161.112,250.041 167.744,249.772 168.014 C 249.386 168.399,249.528 169.165,249.986 169.165 C 250.212 169.165,250.423 169.100,250.454 169.019 C 250.486 168.939,251.354 168.626,252.385 168.323 C 253.416 168.021,254.415 167.674,254.605 167.553 C 254.796 167.431,255.543 167.086,256.266 166.785 C 256.989 166.484,257.581 166.183,257.581 166.117 C 257.581 166.051,257.907 165.838,258.305 165.644 C 259.663 164.983,262.109 162.966,263.720 161.177 C 264.103 160.752,264.311 160.684,265.551 160.576 C 266.321 160.509,266.951 160.392,266.951 160.317 C 266.951 160.242,267.353 160.128,267.845 160.064 C 269.115 159.899,272.392 159.132,272.998 158.859 C 273.279 158.732,274.295 158.381,275.256 158.078 C 276.216 157.776,277.002 157.472,277.002 157.403 C 277.002 157.334,277.213 157.226,277.470 157.164 C 278.538 156.907,284.762 153.598,285.418 152.939 C 285.581 152.775,285.776 152.641,285.851 152.641 C 286.009 152.641,288.693 150.660,289.693 149.804 C 290.877 148.792,293.234 146.612,293.687 146.110 C 293.927 145.845,294.525 145.199,295.017 144.674 C 295.509 144.150,295.911 143.629,295.911 143.517 C 295.911 143.056,291.162 138.173,290.077 137.518 C 289.819 137.362,289.608 137.176,289.608 137.103 C 289.608 137.031,289.299 136.777,288.921 136.538 C 288.543 136.299,288.098 135.973,287.932 135.812 C 287.473 135.367,286.082 134.412,285.893 134.412 C 285.801 134.412,285.686 134.307,285.637 134.179 C 285.587 134.050,285.200 133.777,284.776 133.572 C 284.352 133.366,283.829 133.060,283.613 132.891 C 283.397 132.722,282.721 132.335,282.112 132.031 C 281.503 131.727,280.890 131.386,280.750 131.273 C 280.609 131.161,280.149 130.927,279.727 130.754 C 279.306 130.581,278.424 130.192,277.768 129.890 C 277.112 129.587,276.001 129.160,275.298 128.940 C 274.595 128.720,273.982 128.492,273.935 128.432 C 273.827 128.295,272.339 127.878,270.698 127.525 C 268.919 127.142,268.927 127.146,266.861 125.418 C 266.604 125.204,266.155 124.907,265.863 124.760 C 265.571 124.612,265.179 124.361,264.991 124.200 C 264.804 124.040,264.076 123.658,263.373 123.351 C 262.670 123.044,262.057 122.735,262.010 122.665 C 261.899 122.500,258.778 121.465,258.390 121.465 C 258.226 121.465,258.092 121.397,258.092 121.313 C 258.092 120.535,248.809 119.878,243.782 120.300 M253.663 123.762 C 254.647 123.903,255.605 124.089,255.792 124.176 C 255.980 124.264,256.954 124.571,257.957 124.858 C 258.961 125.145,260.020 125.525,260.311 125.702 L 260.840 126.023 257.634 126.042 C 253.732 126.064,248.886 126.581,247.785 127.093 C 247.598 127.180,246.755 127.399,245.911 127.581 C 245.068 127.762,244.240 127.965,244.071 128.031 C 243.746 128.160,243.801 127.425,244.151 126.978 C 244.235 126.872,244.399 126.067,244.516 125.190 L 244.729 123.595 245.575 123.481 C 246.860 123.309,251.646 123.475,253.663 123.762 M262.388 129.410 C 262.975 129.507,263.007 129.541,262.818 129.877 C 262.558 130.338,262.543 133.202,262.797 133.748 C 262.902 133.973,263.167 134.578,263.385 135.094 C 264.065 136.695,264.311 136.799,265.298 135.903 C 265.634 135.598,266.105 135.211,266.344 135.043 C 266.840 134.695,266.888 134.395,266.534 133.853 C 266.083 133.161,265.892 131.869,266.107 130.970 C 266.364 129.900,265.944 129.887,271.522 131.132 C 272.152 131.272,272.132 131.573,271.405 132.907 C 271.031 133.594,270.593 134.617,270.433 135.179 C 270.273 135.741,270.081 136.241,270.006 136.289 C 268.873 137.022,268.808 147.497,269.921 149.984 C 270.051 150.274,270.350 151.063,270.585 151.737 C 270.819 152.411,271.114 153.148,271.238 153.375 C 271.363 153.602,271.674 154.175,271.930 154.649 L 272.395 155.511 271.845 155.629 C 271.542 155.693,271.211 155.813,271.109 155.895 C 270.835 156.115,266.814 156.949,266.539 156.843 C 265.898 156.598,265.853 154.360,266.462 153.077 C 266.637 152.708,266.780 152.359,266.780 152.301 C 266.780 152.142,264.478 150.426,264.265 150.426 C 263.259 150.426,261.892 156.548,262.828 156.860 C 263.640 157.130,262.969 157.556,261.542 157.675 C 259.673 157.832,253.367 157.658,253.097 157.442 C 252.986 157.354,252.378 157.228,251.745 157.162 C 250.808 157.065,250.556 156.973,250.395 156.673 C 249.861 155.681,249.923 154.160,250.550 152.839 L 250.827 152.255 250.243 151.769 C 248.256 150.113,248.032 150.109,247.382 151.722 C 247.160 152.274,246.893 152.906,246.790 153.126 C 246.686 153.347,246.600 154.129,246.597 154.865 L 246.593 156.203 246.167 156.102 C 245.933 156.046,245.664 155.944,245.571 155.874 C 245.477 155.804,244.710 155.538,243.867 155.284 C 243.024 155.030,241.920 154.626,241.414 154.388 L 240.494 153.955 241.329 153.218 C 241.788 152.813,242.298 152.436,242.462 152.379 C 242.750 152.280,242.891 151.789,242.632 151.788 C 241.682 151.783,241.699 147.446,242.651 146.803 C 242.785 146.713,242.746 146.614,242.528 146.485 C 242.353 146.383,242.082 146.173,241.926 146.020 C 240.943 145.057,240.122 144.692,239.759 145.055 C 238.210 146.603,238.210 152.513,239.759 153.532 C 239.894 153.621,239.889 153.658,239.742 153.660 C 239.478 153.663,238.308 153.125,238.047 152.880 C 237.938 152.778,237.593 152.591,237.280 152.464 C 236.968 152.338,236.119 151.866,235.394 151.416 C 234.669 150.965,234.015 150.596,233.941 150.596 C 233.867 150.596,233.555 150.366,233.247 150.085 C 232.939 149.804,232.625 149.574,232.549 149.574 C 232.175 149.574,229.272 147.202,226.798 144.875 L 225.334 143.497 226.437 142.404 C 227.043 141.803,228.099 140.852,228.783 140.290 C 229.468 139.727,230.196 139.114,230.402 138.927 C 230.608 138.739,231.230 138.280,231.785 137.905 C 232.340 137.531,232.898 137.126,233.026 137.004 C 233.153 136.883,233.625 136.598,234.074 136.370 C 234.524 136.142,234.918 135.891,234.950 135.811 C 234.982 135.732,235.545 135.411,236.201 135.099 C 236.857 134.787,237.509 134.437,237.649 134.322 C 237.790 134.208,238.263 133.958,238.701 133.767 L 239.498 133.420 239.163 134.202 C 238.135 136.599,238.476 140.458,239.844 141.926 C 240.194 142.302,241.056 142.052,241.056 141.575 C 241.056 141.490,241.190 141.375,241.354 141.320 C 241.518 141.264,241.906 141.009,242.216 140.751 L 242.779 140.282 242.362 139.519 C 241.614 138.151,241.691 136.017,242.518 135.190 C 242.796 134.911,242.189 134.229,241.033 133.523 C 240.267 133.055,240.590 132.783,242.730 132.091 C 243.822 131.738,244.909 131.356,245.144 131.243 C 245.379 131.130,245.801 130.991,246.082 130.934 L 246.593 130.830 246.627 132.235 C 246.647 133.034,246.738 133.666,246.840 133.700 C 246.938 133.732,247.024 133.925,247.030 134.128 C 247.035 134.331,247.248 134.919,247.501 135.434 C 248.062 136.576,248.456 136.696,249.198 135.954 C 249.484 135.668,249.777 135.434,249.848 135.434 C 250.588 135.434,250.880 134.470,250.412 133.572 C 250.008 132.796,249.930 131.397,250.238 130.461 L 250.436 129.862 252.262 129.655 C 253.267 129.541,254.242 129.425,254.429 129.398 C 255.111 129.298,261.772 129.308,262.388 129.410 M276.150 132.868 C 276.197 132.922,276.848 133.230,277.598 133.552 C 278.348 133.874,278.999 134.186,279.046 134.245 C 279.093 134.304,279.744 134.653,280.494 135.021 C 281.244 135.389,281.934 135.774,282.027 135.876 C 282.121 135.978,282.581 136.278,283.049 136.543 C 283.518 136.807,283.940 137.080,283.986 137.149 C 284.066 137.267,285.846 138.501,285.936 138.501 C 285.983 138.501,286.414 138.868,288.842 140.971 C 290.490 142.400,291.309 143.230,291.311 143.473 C 291.313 143.775,287.859 146.992,286.371 148.074 C 285.950 148.381,285.451 148.774,285.264 148.948 C 285.077 149.121,284.636 149.411,284.284 149.592 C 283.933 149.774,283.646 149.983,283.646 150.058 C 283.646 150.133,283.090 150.488,282.411 150.847 C 281.731 151.207,281.137 151.551,281.090 151.613 C 280.939 151.814,277.982 153.328,276.882 153.768 C 275.635 154.267,275.601 154.255,275.017 153.097 C 274.772 152.612,274.498 152.167,274.407 152.109 C 274.317 152.051,273.955 151.161,273.603 150.132 C 273.251 149.102,272.921 148.192,272.869 148.108 C 272.173 146.979,272.180 138.856,272.878 138.337 C 272.946 138.286,273.219 137.555,273.487 136.712 C 274.342 134.013,275.588 132.215,276.150 132.868 M254.402 133.773 C 253.236 135.620,253.147 139.884,254.253 140.989 C 254.397 141.133,254.514 141.349,254.514 141.468 C 254.514 142.172,255.183 142.320,255.837 141.760 C 256.187 141.459,256.723 141.056,257.027 140.863 C 257.683 140.447,257.728 140.037,257.198 139.294 C 256.783 138.713,256.624 136.239,256.985 135.982 C 257.573 135.562,257.729 134.653,257.240 134.497 C 257.053 134.438,256.899 134.325,256.899 134.246 C 256.899 134.057,255.371 133.049,255.084 133.049 C 254.960 133.049,254.654 133.375,254.402 133.773 M212.160 136.457 C 212.247 136.457,212.632 136.691,213.016 136.977 C 214.559 138.127,215.922 139.117,216.464 139.483 C 217.240 140.007,217.190 140.297,216.397 139.874 C 216.046 139.687,214.704 139.027,213.416 138.408 L 211.073 137.283 211.073 136.614 C 211.073 136.246,210.997 135.945,210.903 135.945 C 210.809 135.945,210.733 135.825,210.733 135.678 C 210.733 135.480,210.898 135.546,211.368 135.933 C 211.717 136.221,212.074 136.457,212.160 136.457 M232.022 139.395 C 231.633 140.027,231.175 141.443,231.175 142.014 C 231.175 142.226,231.099 142.446,231.005 142.504 C 230.797 142.633,230.776 144.123,230.981 144.123 C 231.062 144.123,231.173 144.506,231.229 144.974 C 231.489 147.174,232.521 148.450,233.392 147.652 C 233.625 147.438,234.103 147.046,234.455 146.780 C 235.196 146.219,235.211 146.134,234.743 145.077 C 234.213 143.878,234.259 142.603,234.883 141.255 C 235.179 140.615,234.968 140.323,233.480 139.313 C 232.599 138.715,232.435 138.724,232.022 139.395 M246.346 139.423 C 246.149 139.743,245.894 140.395,245.781 140.871 C 245.668 141.348,245.517 141.738,245.445 141.738 C 245.374 141.738,245.315 142.466,245.315 143.356 C 245.315 144.246,245.385 144.974,245.471 144.974 C 245.556 144.974,245.675 145.262,245.734 145.613 C 246.046 147.450,246.999 148.344,247.824 147.573 C 248.108 147.308,248.617 146.902,248.956 146.672 C 249.690 146.172,249.679 146.256,249.150 145.119 C 248.624 143.989,248.602 142.925,249.078 141.652 C 249.491 140.547,249.480 140.524,248.091 139.497 C 247.003 138.694,246.803 138.685,246.346 139.423 M262.440 139.225 C 261.110 141.104,261.239 146.069,262.661 147.743 C 263.033 148.179,263.182 148.129,264.353 147.169 C 265.520 146.214,265.578 146.044,265.077 145.060 C 264.617 144.158,264.626 142.728,265.099 141.591 C 265.522 140.573,265.502 140.529,264.105 139.497 C 263.079 138.740,262.814 138.696,262.440 139.225 M212.491 140.100 C 212.882 140.324,213.701 140.723,214.310 140.988 C 214.919 141.252,215.456 141.522,215.503 141.588 C 215.551 141.654,216.011 141.900,216.525 142.135 L 217.462 142.562 214.438 142.575 L 211.414 142.589 211.414 141.141 C 211.414 139.523,211.439 139.499,212.491 140.100 M279.896 141.061 C 279.070 141.383,278.012 143.952,278.705 143.952 C 278.799 143.952,278.876 144.073,278.876 144.221 C 278.876 145.718,282.034 145.961,282.973 144.537 C 284.243 142.611,282.108 140.199,279.896 141.061 M216.865 144.765 C 216.537 144.920,215.330 145.490,214.183 146.032 C 213.036 146.575,212.020 147.019,211.926 147.019 C 211.832 147.019,211.755 147.095,211.755 147.189 C 211.755 147.283,211.678 147.359,211.584 147.359 C 211.484 147.359,211.414 146.763,211.414 145.911 L 211.414 144.463 214.438 144.474 C 217.376 144.485,217.445 144.493,216.865 144.765 M254.609 145.183 C 254.463 145.391,254.344 145.659,254.344 145.779 C 254.344 145.899,254.270 145.997,254.180 145.997 C 253.858 145.997,253.492 147.764,253.492 149.319 C 253.492 150.834,253.856 152.641,254.162 152.641 C 254.242 152.641,254.354 152.813,254.412 153.024 C 254.719 154.144,255.262 154.209,256.332 153.251 C 256.597 153.014,256.998 152.677,257.223 152.503 C 257.684 152.147,257.641 151.532,257.119 151.010 C 256.576 150.468,256.607 148.743,257.179 147.612 L 257.666 146.649 257.240 146.324 C 257.006 146.146,256.661 145.860,256.474 145.689 C 255.487 144.787,254.983 144.650,254.609 145.183 M216.996 147.019 C 216.879 147.206,216.738 147.359,216.682 147.359 C 216.577 147.359,215.077 148.477,214.682 148.850 C 214.558 148.967,214.117 149.262,213.702 149.505 C 213.287 149.748,212.947 150.008,212.947 150.082 C 212.947 150.156,212.660 150.351,212.308 150.516 C 211.957 150.680,211.459 150.962,211.201 151.143 C 210.943 151.323,210.733 151.394,210.733 151.299 C 210.733 151.205,210.809 151.080,210.903 151.022 C 210.997 150.964,211.073 150.649,211.073 150.321 C 211.073 149.761,211.132 149.699,212.053 149.281 C 212.592 149.037,213.071 148.783,213.118 148.717 C 213.164 148.651,213.778 148.348,214.480 148.044 C 215.183 147.739,215.875 147.388,216.017 147.263 C 216.220 147.085,216.867 146.762,217.165 146.689 C 217.189 146.683,217.113 146.831,216.996 147.019 M256.985 160.992 C 258.806 160.998,258.992 161.026,258.688 161.243 C 258.501 161.378,258.241 161.586,258.111 161.706 C 257.499 162.273,253.971 164.224,253.560 164.225 C 253.380 164.225,253.156 162.634,253.153 161.348 L 253.152 160.770 254.046 160.878 C 254.538 160.937,255.860 160.988,256.985 160.992 " stroke="none" fill="#0494d4" fill-rule="evenodd"></path><path id="path2" d="" stroke="none" fill="#1007c04" fill-rule="evenodd"></path><path id="path3" d="" stroke="none" fill="#bc7c70" fill-rule="evenodd"></path><path id="path4" d="" stroke="none" fill="#1007c04" fill-rule="evenodd"></path></g></svg>