<svg width="247" height="35" viewBox="0 0 247 35" fill="none" xmlns="http://www.w3.org/2000/svg">
<path d="M17.4955 26.9787C20.3878 23.7816 25.4085 23.7814 28.301 26.9784L30.6672 29.5937C33.2324 32.4289 36.8773 34.0464 40.7007 34.0464H45.7959V27.9981H40.7007C37.6763 27.9981 34.7931 26.7186 32.764 24.4759L30.3977 21.8606C26.3827 17.4229 19.4135 17.4231 15.3987 21.861L13.0335 24.4754C11.0043 26.7184 8.12096 27.9981 5.09636 27.9981H0V34.0464H5.09636C8.92 34.0464 12.5651 32.4286 15.1303 29.5931L17.4955 26.9787Z" fill="white"/>
<path d="M0 27.4083H5.09636C7.95428 27.4083 10.6788 26.1991 12.5961 24.0798L14.9613 21.4653C19.2102 16.7686 26.5859 16.7684 30.8351 21.4649L33.2013 24.0802C35.1186 26.1993 37.843 27.4083 40.7007 27.4083H45.7959V22.0018H40.7007C37.6763 22.0018 34.7931 20.7223 32.764 18.4796L30.3977 15.8643C26.3827 11.4266 19.4135 11.4268 15.3987 15.8647L13.0335 18.4791C11.0043 20.7221 8.12096 22.0018 5.09636 22.0018H0V27.4083Z" fill="white"/>
<path d="M0 21.412H5.09636C7.95428 21.412 10.6788 20.2028 12.5961 18.0835L14.9613 15.469C19.2102 10.7723 26.5859 10.7721 30.8351 15.4686L33.2013 18.0839C35.1186 20.203 37.843 21.412 40.7007 21.412H45.7959V16.0055H40.7007C37.6763 16.0055 34.7931 14.726 32.764 12.4833L30.3977 9.86795C26.3827 5.43027 19.4135 5.43046 15.3987 9.86837L13.0335 12.4828C11.0043 14.7258 8.12096 16.0055 5.09636 16.0055H0V21.412Z" fill="white"/>
<path d="M0 15.4157H5.09636C7.95428 15.4157 10.6788 14.2065 12.5961 12.0872L14.9613 9.4727C19.2102 4.77597 26.5859 4.77576 30.8351 9.47225L33.2013 12.0876C35.1186 14.2067 37.843 15.4157 40.7007 15.4157H45.7959V9.81188H40.7007C38.6419 9.81188 36.6793 8.94088 35.2981 7.41425L32.9318 4.79893C27.5601 -1.13828 18.2359 -1.13802 12.8644 4.79949L10.4992 7.41395C9.118 8.94076 7.15524 9.81188 5.09636 9.81188H0V15.4157Z" fill="white"/>
<path d="M64.9265 33.9984V28.7779H63.1426V27.8772H67.8384V28.7779H66.0458V33.9984H64.9265Z" fill="white"/>
<path d="M73.0661 33.9984V27.8772H77.0624V28.7779H74.1855V30.4569H76.8001V31.3313H74.1855V33.0978H77.0624V33.9984H73.0661Z" fill="white"/>
<path d="M85.2922 34.1034C84.6743 34.1034 84.1438 33.9722 83.7007 33.7099C83.2576 33.4417 82.9166 33.0715 82.6776 32.5993C82.4386 32.1213 82.319 31.5704 82.319 30.9466C82.319 30.3228 82.4386 29.7719 82.6776 29.2938C82.9166 28.8158 83.2576 28.4427 83.7007 28.1745C84.1438 27.9064 84.6743 27.7723 85.2922 27.7723C86.0268 27.7723 86.6272 27.9559 87.0936 28.3232C87.5658 28.6846 87.8602 29.1947 87.9768 29.8535H86.7438C86.668 29.5212 86.5048 29.2618 86.2541 29.0752C86.0093 28.8828 85.6828 28.7867 85.2747 28.7867C84.7092 28.7867 84.2662 28.979 83.9455 29.3638C83.6249 29.7486 83.4646 30.2762 83.4646 30.9466C83.4646 31.617 83.6249 32.1446 83.9455 32.5294C84.2662 32.9083 84.7092 33.0978 85.2747 33.0978C85.6828 33.0978 86.0093 33.0103 86.2541 32.8354C86.5048 32.6547 86.668 32.4069 86.7438 32.0921H87.9768C87.8602 32.7217 87.5658 33.2143 87.0936 33.57C86.6272 33.9256 86.0268 34.1034 85.2922 34.1034Z" fill="white"/>
<path d="M93.3662 33.9984V27.8772H94.4855V30.4219H97.2313V27.8772H98.3506V33.9984H97.2313V31.3313H94.4855V33.9984H93.3662Z" fill="white"/>
<path d="M103.939 33.9984V27.8772H105.058L107.935 32.1883V27.8772H109.054V33.9984H107.935L105.058 29.6961V33.9984H103.939Z" fill="white"/>
<path d="M117.508 34.1034C116.896 34.1034 116.359 33.9693 115.899 33.7011C115.444 33.433 115.086 33.0628 114.823 32.5906C114.567 32.1125 114.439 31.5616 114.439 30.9378C114.439 30.314 114.567 29.7661 114.823 29.2938C115.086 28.8158 115.444 28.4427 115.899 28.1745C116.359 27.9064 116.896 27.7723 117.508 27.7723C118.114 27.7723 118.648 27.9064 119.108 28.1745C119.569 28.4427 119.927 28.8158 120.184 29.2938C120.44 29.7661 120.569 30.314 120.569 30.9378C120.569 31.5616 120.44 32.1125 120.184 32.5906C119.927 33.0628 119.569 33.433 119.108 33.7011C118.648 33.9693 118.114 34.1034 117.508 34.1034ZM117.508 33.0978C118.091 33.0978 118.554 32.9054 118.898 32.5206C119.248 32.1358 119.423 31.6083 119.423 30.9378C119.423 30.2674 119.248 29.7398 118.898 29.3551C118.554 28.9703 118.091 28.7779 117.508 28.7779C116.925 28.7779 116.459 28.9703 116.109 29.3551C115.759 29.7398 115.584 30.2674 115.584 30.9378C115.584 31.6083 115.759 32.1358 116.109 32.5206C116.459 32.9054 116.925 33.0978 117.508 33.0978Z" fill="white"/>
<path d="M125.955 33.9984V27.8772H127.075V33.124H129.786V33.9984H125.955Z" fill="white"/>
<path d="M137.483 34.1034C136.871 34.1034 136.335 33.9693 135.874 33.7011C135.42 33.433 135.061 33.0628 134.799 32.5906C134.542 32.1125 134.414 31.5616 134.414 30.9378C134.414 30.314 134.542 29.7661 134.799 29.2938C135.061 28.8158 135.42 28.4427 135.874 28.1745C136.335 27.9064 136.871 27.7723 137.483 27.7723C138.09 27.7723 138.623 27.9064 139.084 28.1745C139.544 28.4427 139.903 28.8158 140.159 29.2938C140.416 29.7661 140.544 30.314 140.544 30.9378C140.544 31.5616 140.416 32.1125 140.159 32.5906C139.903 33.0628 139.544 33.433 139.084 33.7011C138.623 33.9693 138.09 34.1034 137.483 34.1034ZM137.483 33.0978C138.066 33.0978 138.53 32.9054 138.874 32.5206C139.224 32.1358 139.399 31.6083 139.399 30.9378C139.399 30.2674 139.224 29.7398 138.874 29.3551C138.53 28.9703 138.066 28.7779 137.483 28.7779C136.9 28.7779 136.434 28.9703 136.084 29.3551C135.735 29.7398 135.56 30.2674 135.56 30.9378C135.56 31.6083 135.735 32.1358 136.084 32.5206C136.434 32.9054 136.9 33.0978 137.483 33.0978Z" fill="white"/>
<path d="M148.607 34.1034C148.03 34.1034 147.525 33.9722 147.094 33.7099C146.663 33.4475 146.327 33.0832 146.088 32.6168C145.849 32.1446 145.73 31.5966 145.73 30.9728C145.73 30.3432 145.852 29.7894 146.097 29.3113C146.348 28.8275 146.7 28.4514 147.155 28.1833C147.616 27.9093 148.161 27.7723 148.79 27.7723C149.507 27.7723 150.102 27.9443 150.574 28.2882C151.046 28.6322 151.353 29.1073 151.492 29.7136H150.242C150.149 29.4279 149.98 29.2064 149.735 29.049C149.49 28.8858 149.175 28.8041 148.79 28.8041C148.178 28.8041 147.706 28.9994 147.374 29.39C147.041 29.7748 146.875 30.3053 146.875 30.9816C146.875 31.6578 147.039 32.1825 147.365 32.5556C147.697 32.9229 148.146 33.1065 148.712 33.1065C149.265 33.1065 149.682 32.9578 149.962 32.6605C150.248 32.3574 150.42 31.961 150.478 31.4713H148.93V30.6318H151.606V33.9984H150.574L150.487 33.1939C150.289 33.4854 150.041 33.7099 149.744 33.8673C149.446 34.0247 149.067 34.1034 148.607 34.1034Z" fill="white"/>
<path d="M158.325 33.9984V31.821L156.271 27.8772H157.538L158.894 30.7017L160.241 27.8772H161.491L159.445 31.821V33.9984H158.325Z" fill="white"/>
<path d="M173.089 33.9984V27.8772H175.354C175.843 27.8772 176.249 27.9588 176.569 28.1221C176.89 28.2853 177.129 28.5097 177.286 28.7954C177.444 29.0811 177.522 29.4017 177.522 29.7573C177.522 30.0954 177.447 30.4073 177.295 30.693C177.143 30.9728 176.907 31.2002 176.587 31.3751C176.266 31.5441 175.855 31.6287 175.354 31.6287H174.208V33.9984H173.089ZM174.208 30.7192H175.284C175.674 30.7192 175.954 30.6347 176.123 30.4656C176.298 30.2907 176.386 30.0546 176.386 29.7573C176.386 29.4542 176.298 29.2181 176.123 29.049C175.954 28.8741 175.674 28.7867 175.284 28.7867H174.208V30.7192Z" fill="white"/>
<path d="M181.748 33.9984L183.987 27.8772H185.246L187.484 33.9984H186.295L185.806 32.5818H183.418L182.92 33.9984H181.748ZM183.724 31.7074H185.499L184.608 29.1627L183.724 31.7074Z" fill="white"/>
<path d="M192.672 33.9984V27.8772H194.919C195.409 27.8772 195.811 27.9617 196.126 28.1308C196.446 28.294 196.685 28.5185 196.843 28.8041C197 29.084 197.079 29.3959 197.079 29.7398C197.079 30.1129 196.98 30.454 196.782 30.7629C196.589 31.0719 196.286 31.2964 195.872 31.4363L197.14 33.9984H195.855L194.718 31.5849H193.791V33.9984H192.672ZM193.791 30.7629H194.849C195.222 30.7629 195.496 30.6726 195.671 30.4919C195.846 30.3111 195.933 30.0721 195.933 29.7748C195.933 29.4833 195.846 29.2501 195.671 29.0752C195.502 28.9003 195.225 28.8129 194.84 28.8129H193.791V30.7629Z" fill="white"/>
<path d="M203.944 33.9984V28.7779H202.16V27.8772H206.856V28.7779H205.063V33.9984H203.944Z" fill="white"/>
<path d="M212.083 33.9984V27.8772H213.203L216.08 32.1883V27.8772H217.199V33.9984H216.08L213.203 29.6961V33.9984H212.083Z" fill="white"/>
<path d="M222.784 33.9984V27.8772H226.781V28.7779H223.904V30.4569H226.518V31.3313H223.904V33.0978H226.781V33.9984H222.784Z" fill="white"/>
<path d="M232.238 33.9984V27.8772H234.486C234.975 27.8772 235.378 27.9617 235.692 28.1308C236.013 28.294 236.252 28.5185 236.409 28.8041C236.567 29.084 236.646 29.3959 236.646 29.7398C236.646 30.1129 236.546 30.454 236.348 30.7629C236.156 31.0719 235.853 31.2964 235.439 31.4363L236.707 33.9984H235.421L234.285 31.5849H233.358V33.9984H232.238ZM233.358 30.7629H234.416C234.789 30.7629 235.063 30.6726 235.238 30.4919C235.413 30.3111 235.5 30.0721 235.5 29.7748C235.5 29.4833 235.413 29.2501 235.238 29.0752C235.069 28.9003 234.792 28.8129 234.407 28.8129H233.358V30.7629Z" fill="white"/>
<path d="M244.175 34.1034C243.726 34.1034 243.33 34.0276 242.986 33.876C242.642 33.7186 242.371 33.4971 242.173 33.2114C241.974 32.9199 241.872 32.5672 241.867 32.1533H243.047C243.059 32.439 243.161 32.6809 243.353 32.8791C243.551 33.0715 243.822 33.1677 244.166 33.1677C244.464 33.1677 244.7 33.0978 244.875 32.9578C245.05 32.8121 245.137 32.6197 245.137 32.3807C245.137 32.13 245.058 31.9347 244.901 31.7948C244.749 31.6549 244.545 31.5412 244.289 31.4538C244.032 31.3663 243.758 31.273 243.467 31.1739C242.995 31.0107 242.633 30.8008 242.382 30.5443C242.138 30.2878 242.015 29.9468 242.015 29.5212C242.009 29.1598 242.094 28.8508 242.269 28.5943C242.449 28.3319 242.694 28.1308 243.003 27.9909C243.312 27.8451 243.668 27.7723 244.07 27.7723C244.478 27.7723 244.837 27.8451 245.146 27.9909C245.461 28.1366 245.705 28.3407 245.88 28.603C246.061 28.8654 246.157 29.1772 246.169 29.5387H244.971C244.965 29.323 244.88 29.1335 244.717 28.9703C244.56 28.8012 244.338 28.7167 244.053 28.7167C243.808 28.7109 243.601 28.7721 243.432 28.9003C243.269 29.0228 243.187 29.2035 243.187 29.4425C243.187 29.6465 243.251 29.8098 243.379 29.9322C243.508 30.0488 243.682 30.1479 243.904 30.2295C244.126 30.3111 244.379 30.3986 244.665 30.4919C244.968 30.5968 245.245 30.7192 245.496 30.8591C245.746 30.999 245.947 31.1856 246.099 31.4188C246.25 31.6461 246.326 31.9405 246.326 32.302C246.326 32.6226 246.245 32.9199 246.081 33.1939C245.918 33.4679 245.676 33.6895 245.356 33.8585C245.035 34.0218 244.641 34.1034 244.175 34.1034Z" fill="white"/>
<path d="M66.5212 5.6151C66.5212 6.25045 66.6971 6.77992 67.0491 7.20349C67.401 7.62706 67.8673 7.98886 68.448 8.28889C69.0287 8.57127 69.6622 8.84483 70.3485 9.10957C71.0347 9.35665 71.721 9.63903 72.4073 9.95671C73.0936 10.2567 73.7271 10.6185 74.3077 11.0421C74.906 11.448 75.3724 11.9687 75.7067 12.604C76.0586 13.2394 76.2346 14.0248 76.2346 14.9602C76.2346 16.0367 75.9706 16.9633 75.4427 17.7398C74.9324 18.5164 74.211 19.1076 73.2783 19.5135C72.3633 19.9195 71.2811 20.1224 70.0317 20.1224C69.1343 20.1224 68.3072 20.0165 67.5506 19.8048C66.7939 19.5753 66.1164 19.2753 65.5181 18.9047L64.9902 19.8312H64.0664C64.0312 19.2312 63.9608 18.5782 63.8552 17.8722C63.7497 17.1663 63.6353 16.478 63.5121 15.8073C63.3889 15.119 63.2658 14.5013 63.1426 13.9542L64.0136 13.6894C64.5943 15.0484 65.2366 16.125 65.9405 16.9192C66.6619 17.6957 67.3922 18.2517 68.1313 18.587C68.8703 18.9047 69.5654 19.0635 70.2165 19.0635C70.7796 19.0635 71.3163 18.9664 71.8266 18.7723C72.3545 18.5605 72.7944 18.2428 73.1464 17.8193C73.4983 17.3957 73.6743 16.8574 73.6743 16.2044C73.6743 15.5337 73.4983 14.9778 73.1464 14.5366C72.7944 14.0777 72.3281 13.6894 71.7474 13.3718C71.1667 13.0541 70.5332 12.7629 69.847 12.4981C69.1607 12.2158 68.4656 11.9246 67.7617 11.6245C67.0755 11.3245 66.442 10.9803 65.8613 10.5921C65.2806 10.1861 64.8143 9.69198 64.4623 9.10957C64.1104 8.50951 63.9344 7.77708 63.9344 6.91229C63.9344 5.87101 64.1896 4.97974 64.6999 4.23849C65.2278 3.47959 65.9405 2.89718 66.8379 2.49126C67.7529 2.06768 68.7911 1.8559 69.9525 1.8559C70.7092 1.8559 71.4043 1.96179 72.0378 2.17357C72.6712 2.36771 73.2783 2.66774 73.859 3.07367L74.3605 2.12063H75.2844C75.3548 3.02072 75.4691 3.93846 75.6275 4.87385C75.7859 5.79158 75.9531 6.6652 76.129 7.4947L75.258 7.75943C74.7829 6.43577 74.211 5.42979 73.5423 4.74148C72.8912 4.05318 72.2313 3.57666 71.5626 3.31193C70.894 3.04719 70.2693 2.91483 69.6886 2.91483C68.7735 2.91483 68.0169 3.16191 67.4186 3.65608C66.8203 4.15024 66.5212 4.80325 66.5212 5.6151Z" fill="white"/>
<path d="M83.3484 20.1224C82.187 20.1224 81.1224 19.8665 80.1546 19.3547C79.2044 18.8429 78.4389 18.1105 77.8582 17.1574C77.2775 16.1867 76.9872 15.0396 76.9872 13.7159C76.9872 12.3393 77.3039 11.1657 77.9374 10.195C78.5709 9.20664 79.4068 8.45656 80.445 7.94474C81.4832 7.43293 82.6094 7.17702 83.8235 7.17702C84.7034 7.17702 85.4952 7.32703 86.1991 7.62706C86.903 7.92709 87.4573 8.33302 87.862 8.84483C88.2843 9.339 88.4955 9.90377 88.4955 10.5391C88.4955 11.0509 88.3459 11.4657 88.0468 11.7834C87.7476 12.0834 87.3781 12.2334 86.9382 12.2334C86.5159 12.2334 86.1463 12.0922 85.8296 11.8098C85.5304 11.5098 85.3809 11.1304 85.3809 10.6715C85.3809 10.3715 85.4776 10.0714 85.6712 9.7714C85.8648 9.47137 86.2167 9.27723 86.727 9.18899C86.4103 8.83601 85.9968 8.57128 85.4864 8.39479C84.9937 8.20065 84.4482 8.10358 83.8499 8.10358C82.9525 8.10358 82.231 8.34184 81.6855 8.81836C81.1576 9.27723 80.7705 9.92141 80.5241 10.7509C80.2954 11.5628 80.181 12.4981 80.181 13.5571C80.181 14.6866 80.3394 15.6573 80.6561 16.4691C80.9729 17.2633 81.4128 17.8722 81.9759 18.2958C82.539 18.7194 83.1901 18.9311 83.9291 18.9311C84.721 18.9311 85.4513 18.7017 86.1199 18.2428C86.7886 17.7663 87.3869 17.1663 87.9148 16.4427L88.6275 17.0515C88.2228 17.6163 87.7828 18.1369 87.3077 18.6135C86.8326 19.0723 86.2695 19.443 85.6184 19.7253C84.9849 19.9901 84.2283 20.1224 83.3484 20.1224Z" fill="white"/>
<path d="M101.639 18.7458L101.823 18.9311H103.513V19.8577H96.8611V18.9311H98.5504L98.7352 18.7458V11.0156C98.7352 10.1685 98.5856 9.53314 98.2865 9.10957C98.0049 8.686 97.521 8.47421 96.8348 8.47421C96.2013 8.47421 95.5854 8.70365 94.9871 9.16252C94.4064 9.62139 93.7905 10.4156 93.1394 11.5451V18.7458L93.3242 18.9311H95.0135V19.8577H88.3619V18.9311H90.0512L90.2359 18.7458V1.64411L90.0512 1.4588H88.3619V0.532235C88.8194 0.532235 89.3121 0.532235 89.84 0.532235C90.3855 0.514587 90.9222 0.496938 91.4501 0.479288C91.9956 0.443991 92.4971 0.399871 92.9547 0.346924L93.1394 0.532235V9.82435C93.5969 9.0478 94.1864 8.41244 94.9079 7.91827C95.647 7.4241 96.606 7.17702 97.785 7.17702C98.7176 7.17702 99.4655 7.33586 100.029 7.65354C100.592 7.95357 100.996 8.36832 101.243 8.89778C101.507 9.4096 101.639 9.98318 101.639 10.6185V18.7458Z" fill="white"/>
<path d="M125.843 18.9311H127.533V19.8577H121.066V18.9311H122.544L122.755 18.7458V11.0156C122.755 10.1685 122.614 9.53314 122.333 9.10957C122.069 8.686 121.594 8.47421 120.908 8.47421C120.256 8.47421 119.667 8.70365 119.139 9.16252C118.629 9.62139 118.048 10.4156 117.397 11.5451V18.7458L117.608 18.9311H119.086V19.8577H112.831V18.9311H114.309L114.493 18.7458V11.0156C114.493 10.1685 114.353 9.53314 114.071 9.10957C113.807 8.686 113.341 8.47421 112.672 8.47421C112.021 8.47421 111.432 8.70365 110.904 9.16252C110.393 9.62139 109.813 10.4156 109.162 11.5451V18.7458L109.346 18.9311H110.851V19.8577H104.384V18.9311H106.073L106.258 18.7458V8.55363L106.073 8.36832H104.384V7.44175C104.842 7.44175 105.326 7.44175 105.836 7.44175C106.346 7.4241 106.848 7.39763 107.34 7.36233C107.851 7.32703 108.335 7.28291 108.792 7.22997L108.977 7.44175V9.82435H109.162C109.619 9.0478 110.182 8.41244 110.851 7.91827C111.52 7.4241 112.443 7.17702 113.622 7.17702C114.801 7.17702 115.681 7.43293 116.262 7.94474C116.843 8.43891 117.203 9.07427 117.344 9.85082C117.802 9.03897 118.382 8.39479 119.086 7.91827C119.79 7.4241 120.714 7.17702 121.858 7.17702C122.773 7.17702 123.503 7.33586 124.049 7.65354C124.612 7.95357 125.016 8.36832 125.263 8.89778C125.527 9.4096 125.659 9.98318 125.659 10.6185V18.7458L125.843 18.9311Z" fill="white"/>
<path d="M128.346 19.8577V18.9311H130.035L130.22 18.7458V8.55363L130.035 8.36832H128.346V7.44175C128.803 7.44175 129.296 7.44175 129.824 7.44175C130.369 7.4241 130.906 7.39763 131.434 7.36233C131.98 7.32703 132.481 7.28291 132.939 7.22997L133.123 7.44175V18.7458L133.308 18.9311H134.997V19.8577H128.346ZM131.592 5.13858C131.1 5.13858 130.669 4.96209 130.299 4.60911C129.947 4.23849 129.771 3.80609 129.771 3.31193C129.771 2.80011 129.947 2.36771 130.299 2.01474C130.669 1.66176 131.1 1.48527 131.592 1.48527C132.085 1.48527 132.507 1.66176 132.859 2.01474C133.229 2.36771 133.414 2.80011 133.414 3.31193C133.414 3.80609 133.229 4.23849 132.859 4.60911C132.507 4.96209 132.085 5.13858 131.592 5.13858Z" fill="white"/>
<path d="M147.251 18.7458L147.462 18.9311H149.125V19.8577C148.667 19.8577 148.175 19.8577 147.647 19.8577C147.119 19.8753 146.582 19.893 146.037 19.9106C145.509 19.9459 145.016 19.9901 144.559 20.043L144.347 19.8577V17.6604C144.013 18.2781 143.494 18.8429 142.79 19.3547C142.104 19.8665 141.268 20.1224 140.283 20.1224C139.192 20.1224 138.215 19.8665 137.353 19.3547C136.508 18.8252 135.848 18.084 135.373 17.131C134.898 16.1603 134.66 15.0131 134.66 13.6894C134.66 12.3834 134.898 11.2451 135.373 10.2744C135.848 9.28606 136.508 8.52715 137.353 7.99769C138.215 7.45057 139.192 7.17702 140.283 7.17702C141.338 7.17702 142.192 7.41528 142.843 7.8918C143.512 8.35067 144.013 8.92426 144.347 9.61256V1.64411L144.163 1.4588H142.5V0.532235C142.957 0.532235 143.45 0.532235 143.978 0.532235C144.523 0.514587 145.06 0.496938 145.588 0.479288C146.116 0.443991 146.609 0.399871 147.066 0.346924L147.251 0.532235V18.7458ZM144.347 15.7543V11.5451C143.855 10.4156 143.3 9.62139 142.685 9.16252C142.086 8.70365 141.488 8.47421 140.89 8.47421C140.01 8.47421 139.288 8.86249 138.725 9.63903C138.162 10.3979 137.881 11.6422 137.881 13.3718C137.881 15.1013 138.162 16.4427 138.725 17.3957C139.288 18.3311 140.01 18.7988 140.89 18.7988C141.488 18.7988 142.086 18.5782 142.685 18.1369C143.3 17.6781 143.855 16.8839 144.347 15.7543Z" fill="white"/>
<path d="M157.059 17.5016L157.772 18.1105C157.42 18.6929 156.998 19.1782 156.505 19.5665C156.012 19.9371 155.353 20.1224 154.525 20.1224C153.927 20.1224 153.346 19.9989 152.783 19.7518C152.238 19.5047 151.789 19.1076 151.437 18.5605C151.103 18.0134 150.936 17.3163 150.936 16.4691V8.55363L150.725 8.36832H148.56V7.44175C149.739 7.28291 150.716 6.76227 151.49 5.87983C152.282 4.97974 152.757 3.72667 152.915 2.12063H153.839V7.44175H157.508V8.36832H153.998L153.839 8.55363V16.8662C153.839 17.4486 153.962 17.8987 154.209 18.2164C154.455 18.534 154.798 18.6929 155.238 18.6929C155.555 18.6929 155.863 18.5958 156.162 18.4017C156.461 18.2075 156.76 17.9075 157.059 17.5016Z" fill="white"/>
<path d="M174.366 19.8577L168.691 5.218H168.559L167.371 3.23251L167.16 3.04719H165.127V2.12063H171.066L176.398 15.9132H176.53L181.888 2.12063V5.82688H181.756L176.345 19.8577H174.366ZM165.127 19.8577V18.9311H167.16L167.371 18.7458V3.23251L168.559 5.218V18.7458L168.743 18.9311H170.908V19.8577H165.127ZM179.882 19.8577V18.9311H181.677L181.888 18.7458V2.12063H187.062V3.04719H185.188L185.056 3.17956V18.7458L185.24 18.9311H187.062V19.8577H179.882Z" fill="white"/>
<path d="M197.888 20.1224C197.289 20.1224 196.77 20.0077 196.33 19.7783C195.908 19.5488 195.591 19.1782 195.38 18.6664V11.8628C195.38 10.7686 195.187 9.90376 194.8 9.26841C194.43 8.6154 193.726 8.28889 192.688 8.28889C192.23 8.28889 191.799 8.34184 191.395 8.44773C190.99 8.53598 190.594 8.70364 190.207 8.95073C190.488 9.10957 190.699 9.32136 190.84 9.58609C190.981 9.83317 191.051 10.1067 191.051 10.4068C191.051 10.8656 190.902 11.2451 190.603 11.5451C190.304 11.8275 189.934 11.9687 189.494 11.9687C189.054 11.9687 188.685 11.8187 188.386 11.5186C188.086 11.201 187.937 10.7862 187.937 10.2744C187.937 9.76258 188.095 9.31253 188.412 8.92426C188.746 8.53598 189.177 8.2183 189.705 7.97121C190.251 7.70648 190.849 7.51235 191.5 7.3888C192.151 7.24761 192.785 7.17702 193.401 7.17702C194.263 7.17702 195.064 7.30056 195.803 7.54764C196.542 7.79473 197.14 8.22712 197.597 8.84483C198.055 9.46254 198.284 10.3362 198.284 11.4657V17.5016C198.284 17.7487 198.337 17.9869 198.442 18.2164C198.565 18.4458 198.785 18.5605 199.102 18.5605C199.331 18.5605 199.533 18.4899 199.709 18.3487C199.885 18.1899 200.052 18.0134 200.211 17.8193L200.923 18.4281C200.712 18.7282 200.475 19.0106 200.211 19.2753C199.947 19.5224 199.63 19.7253 199.26 19.8842C198.891 20.043 198.433 20.1224 197.888 20.1224ZM191.685 20.1224C190.295 20.1224 189.186 19.7871 188.359 19.1164C187.55 18.4281 187.145 17.5634 187.145 16.5221C187.145 15.4984 187.55 14.6513 188.359 13.9806C189.169 13.2923 190.277 12.9482 191.685 12.9482C192.6 12.9482 193.357 13.0982 193.955 13.3982C194.553 13.6806 195.028 14.0159 195.38 14.4042V15.622C194.905 15.1102 194.404 14.7395 193.876 14.5101C193.365 14.2807 192.873 14.166 192.398 14.166C191.659 14.166 191.078 14.3866 190.655 14.8278C190.251 15.2514 190.048 15.8161 190.048 16.5221C190.048 17.228 190.251 17.8016 190.655 18.2428C191.078 18.6841 191.659 18.9047 192.398 18.9047C192.873 18.9047 193.365 18.7899 193.876 18.5605C194.404 18.3311 194.905 17.9516 195.38 17.4222V18.6664C195.028 19.037 194.553 19.3724 193.955 19.6724C193.357 19.9724 192.6 20.1224 191.685 20.1224Z" fill="white"/>
<path d="M205.886 10.2744C206.326 9.42725 206.897 8.69482 207.601 8.07711C208.305 7.4594 209.132 7.15937 210.082 7.17702C210.575 7.17702 210.971 7.27409 211.27 7.46822C211.587 7.64471 211.816 7.88297 211.957 8.183C212.097 8.48303 212.168 8.80071 212.168 9.13604C212.168 9.6655 211.992 10.1156 211.64 10.4862C211.305 10.8392 210.857 11.0156 210.294 11.0156C209.766 11.0156 209.317 10.8392 208.947 10.4862C208.578 10.1156 208.393 9.6655 208.393 9.13604C208.393 8.88896 208.455 8.63305 208.578 8.36832C208.719 8.10358 208.851 7.90945 208.974 7.7859L208.947 8.60657C208.613 8.71246 208.288 8.88896 207.971 9.13604C207.672 9.36547 207.355 9.71846 207.021 10.195C206.686 10.6715 206.308 11.3598 205.886 12.2599V10.2744ZM205.886 18.7458L206.07 18.9311H208.683V19.8577H201.108V18.9311H202.771L202.982 18.7458V8.55363L202.771 8.36832H201.108V7.44175C201.566 7.44175 202.041 7.44175 202.533 7.44175C203.044 7.4241 203.545 7.39763 204.038 7.36233C204.548 7.32703 205.032 7.28291 205.49 7.22997L205.674 7.44175V10.2744H205.886V18.7458Z" fill="white"/>
<path d="M212.381 19.8577V18.9311H214.07L214.255 18.7458V8.55363L214.07 8.36832H212.381V7.44175C212.838 7.44175 213.331 7.44175 213.859 7.44175C214.404 7.4241 214.941 7.39763 215.469 7.36233C216.015 7.32703 216.516 7.28291 216.974 7.22997L217.158 7.44175V18.7458L217.343 18.9311H219.032V19.8577H212.381ZM215.627 5.13858C215.135 5.13858 214.704 4.96209 214.334 4.60911C213.982 4.23849 213.806 3.80609 213.806 3.31193C213.806 2.80011 213.982 2.36771 214.334 2.01474C214.704 1.66176 215.135 1.48527 215.627 1.48527C216.12 1.48527 216.542 1.66176 216.894 2.01474C217.264 2.36771 217.449 2.80011 217.449 3.31193C217.449 3.80609 217.264 4.23849 216.894 4.60911C216.542 4.96209 216.12 5.13858 215.627 5.13858Z" fill="white"/>
<path d="M233.284 18.7458L233.495 18.9311H235.158V19.8577H228.533V18.9311H230.196L230.381 18.7458V11.0156C230.381 10.1685 230.231 9.53314 229.932 9.10957C229.65 8.686 229.175 8.47421 228.507 8.47421C227.855 8.47421 227.231 8.70365 226.632 9.16252C226.052 9.62139 225.436 10.4156 224.785 11.5451V18.7458L224.97 18.9311H226.659V19.8577H220.007V18.9311H221.697L221.881 18.7458V8.55363L221.697 8.36832H220.007V7.44175C220.465 7.44175 220.949 7.44175 221.459 7.44175C221.969 7.4241 222.471 7.39763 222.964 7.36233C223.474 7.32703 223.958 7.28291 224.415 7.22997L224.6 7.44175V9.82435H224.785C225.242 9.0478 225.841 8.41244 226.58 7.91827C227.319 7.4241 228.278 7.17702 229.457 7.17702C230.389 7.17702 231.137 7.33586 231.7 7.65354C232.263 7.95357 232.668 8.36832 232.915 8.89778C233.161 9.4096 233.284 9.98318 233.284 10.6185V18.7458Z" fill="white"/>
<path d="M241.364 18.9311C242.279 18.9311 243.071 18.7194 243.74 18.2958C244.426 17.8722 245.007 17.4045 245.482 16.8927L246.194 17.5016C245.825 17.9428 245.402 18.3664 244.927 18.7723C244.452 19.1782 243.88 19.5047 243.212 19.7518C242.543 19.9989 241.716 20.1224 240.73 20.1224C239.587 20.1224 238.531 19.8665 237.563 19.3547C236.595 18.8429 235.812 18.1016 235.214 17.131C234.633 16.1603 234.343 14.9955 234.343 13.6365C234.343 12.2952 234.633 11.1392 235.214 10.1685C235.812 9.19781 236.595 8.45656 237.563 7.94474C238.531 7.43293 239.587 7.17702 240.73 7.17702C241.839 7.17702 242.807 7.39763 243.634 7.83885C244.479 8.26242 245.138 8.92426 245.614 9.82435C246.089 10.7068 246.326 11.8451 246.326 13.2394H237.009V12.3128H243.053C242.983 10.9186 242.754 9.86847 242.367 9.16252C241.98 8.45656 241.364 8.10358 240.519 8.10358C239.833 8.10358 239.27 8.33302 238.83 8.79189C238.39 9.25076 238.065 9.90376 237.853 10.7509C237.642 11.5804 237.537 12.5423 237.537 13.6365C237.537 14.7307 237.695 15.6749 238.012 16.4691C238.346 17.2457 238.795 17.8546 239.358 18.2958C239.939 18.7194 240.607 18.9311 241.364 18.9311Z" fill="white"/>
</svg>
